<svg xmlns="http://www.w3.org/2000/svg" viewBox="0 0 190.61 223.36"><defs><style>.cls-1{opacity:0.8;}.cls-2{fill:#494a5d;}.cls-3{fill:#716d74;}.cls-4{fill:#5b5b61;}.cls-5{fill:#525457;}.cls-6{fill:#cfccd5;}.cls-7{fill:#757b94;}.cls-8{fill:#c9c8d5;}.cls-9{fill:#cecdda;}.cls-10{fill:#cecbd6;}.cls-11{fill:#d3d1dc;}.cls-12{fill:#d0cdd8;}.cls-13{fill:#e2e1e5;}.cls-14{fill:#4f5164;}.cls-15{fill:#d9d8e0;}.cls-16{fill:#cac6d1;}.cls-17{fill:#d2d0db;}.cls-18{fill:#dddce3;}.cls-19{fill:#8d8da0;}.cls-20{fill:#cbc9d4;}.cls-21{fill:#ceccd7;}.cls-22{fill:#bfbecb;}.cls-23{fill:#e1e0e3;}.cls-24{fill:#b6b4c3;}.cls-25{fill:#717188;}.cls-26{fill:#c8c7d5;}.cls-27{fill:#d7d7e0;}.cls-28{fill:#d5d4dc;}.cls-29{fill:#585769;}.cls-30{fill:#7e7d95;}.cls-31{fill:#7f8094;}.cls-32{fill:#c0bfce;}.cls-33{fill:#6d6b81;}.cls-34{fill:#65667d;}.cls-35{fill:#d5d4dd;}.cls-36{fill:#d9d8de;}.cls-37{fill:#d4d2d9;}.cls-38{fill:#aaa7b9;}.cls-39{fill:#606279;}.cls-40{fill:#c9c9d5;}.cls-41{fill:#bfb8c4;}.cls-42{fill:#8f8795;}.cls-43{fill:#dedde1;}.cls-44{fill:#85839b;}.cls-45{fill:#d7d6dc;}.cls-46{fill:#c7c4cd;}.cls-47{fill:#7e908b;}.cls-48{fill:#686972;}.cls-49{fill:#d5d3de;}.cls-50{fill:#cfced2;}.cls-51{fill:#928f9c;}.cls-52{fill:#9497a9;}.cls-53{fill:#7b707e;}.cls-54{fill:#788f81;}.cls-55{fill:#7e8499;}.cls-56{fill:#c7c3cb;}.cls-57{fill:#ceced0;}.cls-58{fill:#464351;}.cls-59{fill:#dbdbdc;}.cls-60{fill:#efeeef;}.cls-61{fill:#bcbac0;}.cls-62{fill:#cbcad1;}.cls-63{fill:#cbcad2;}.cls-64{fill:#a7a8bc;}.cls-65{fill:#c5c5d1;}.cls-66{fill:#cbcbcf;}.cls-67{fill:#9894a2;}.cls-68{fill:#6d5e6f;}.cls-69{fill:#bbbac7;}.cls-70{fill:#857f88;}.cls-71{fill:#dfdee1;}.cls-72{fill:#48484b;}.cls-73{fill:#82a184;}.cls-74{fill:#e9e9eb;}.cls-75{fill:#6c6d83;}.cls-76{fill:#817285;}.cls-77{fill:#d1d1d5;}.cls-78{fill:#b0aeba;}.cls-79{fill:#57575a;}.cls-80{fill:#bcb7c2;}.cls-81{fill:#8e838f;}.cls-82{fill:#d6d5d8;}.cls-83{fill:#c3c2cb;}.cls-84{fill:#aeadb9;}.cls-85{fill:#59595c;}.cls-86{fill:#94ad98;}.cls-87{fill:#869990;}.cls-88{fill:#7d7d8f;}.cls-89{fill:#7e8296;}.cls-90{fill:#677c71;}.cls-91{fill:#85849a;}.cls-92{fill:#bbbbc2;}.cls-93{fill:#8c8c91;}.cls-94{fill:#6c6c80;}.cls-95{fill:#6c5f6c;}.cls-96{fill:#3b5c42;}.cls-97{fill:#7f9684;}.cls-98{fill:#a39da6;}.cls-99{fill:#d5d1d8;}.cls-100{fill:#58555a;}.cls-101{fill:#4c6e4f;}.cls-102{fill:#79917f;}.cls-103{fill:#68676e;}.cls-104{fill:#efeff1;}.cls-105{fill:#665d67;}.cls-106{fill:#b3b1bd;}.cls-107{fill:#99939c;}.cls-108{fill:#9c9da9;}.cls-109{fill:#6d687c;}.cls-110{fill:#5e8760;}.cls-111{fill:#a188a0;}.cls-112{fill:#666c7d;}.cls-113{fill:#575259;}.cls-114{fill:#7d7e90;}.cls-115{fill:#7f9483;}.cls-116{fill:#655767;}.cls-117{fill:#757587;}.cls-118{fill:#485f57;}.cls-119{fill:#5b9766;}.cls-120{fill:#839988;}.cls-121{fill:#827883;}.cls-122{fill:#e1dfe5;}.cls-123{fill:#675d68;}.cls-124{fill:#47764e;}.cls-125{fill:#aaa5b4;}.cls-126{fill:#9596a0;}.cls-127{fill:#94a9a3;}.cls-128{fill:#a29ca9;}.cls-129{fill:#4a6751;}.cls-130{fill:#745b72;}.cls-131{fill:#98b8a2;}.cls-132{fill:#e5e5e9;}.cls-133{fill:#ad9cad;}.cls-134{fill:#5d5c60;}.cls-135{fill:#8c8ba1;}.cls-136{fill:#bcbcc2;}.cls-137{fill:#544c56;}.cls-138{fill:#766876;}.cls-139{fill:#606763;}.cls-140{fill:#68646b;}.cls-141{fill:#bab6c2;}.cls-142{fill:#72727c;}.cls-143{fill:#3d373d;}.cls-144{fill:#f7f7f7;}.cls-145{fill:#5b5a5d;}.cls-146{fill:#afc7b7;}.cls-147{fill:#988f9a;}.cls-148{fill:#918e96;}.cls-149{fill:#c0bfcf;}.cls-150{fill:#8e8a9c;}.cls-151{fill:#acaabe;}.cls-152{fill:#9d9aad;}.cls-153{fill:#aba8ba;}.cls-154{fill:#878396;}.cls-155{fill:#918da0;}.cls-156{fill:#adabbc;}.cls-157{fill:#598776;}.cls-158{fill:#9895a8;}.cls-159{fill:#838193;}.cls-160{fill:#acaabc;}.cls-161{fill:#716c80;}.cls-162{fill:#c6c5d4;}.cls-163{fill:#a7a3b3;}.cls-164{fill:#d8d6df;}.cls-165{fill:#b4b3c2;}.cls-166{fill:#b4b2c1;}.cls-167{fill:#678380;}.cls-168{fill:#c1bdc9;}.cls-169{fill:#bbb6c2;}.cls-170{fill:#888090;}.cls-171{fill:#b1afbe;}.cls-172{fill:#9b96a6;}.cls-173{fill:#56576c;}.cls-174{fill:#bab9c9;}.cls-175{fill:#515368;}.cls-176{fill:#63647a;}.cls-177{fill:#6a6c83;}.cls-178{fill:#71758c;}.cls-179{fill:#b9bbcc;}.cls-180{fill:#6d6f84;}.cls-181{fill:#b9b8c7;}.cls-182{fill:#d0d0dc;}.cls-183{fill:#c0c1d2;}.cls-184{fill:#a8a4b3;}.cls-185{fill:#8d8a99;}.cls-186{fill:#afadbc;}.cls-187{fill:#b8b7c5;}.cls-188{fill:#b9b7c6;}.cls-189{fill:#a09fb0;}.cls-190{fill:#d6d5de;}.cls-191{fill:#77748b;}.cls-192{fill:#7c7c95;}.cls-193{fill:#d6d6e0;}.cls-194{fill:#b4b4c3;}.cls-195{fill:#908d9e;}.cls-196{fill:#d0cfdc;}.cls-197{fill:#c9c8d6;}.cls-198{fill:#9b9aae;}.cls-199{fill:#a7a5b8;}.cls-200{fill:#343643;}.cls-201{fill:#b3b3c2;}.cls-202{fill:#65667b;}.cls-203{fill:#5c5d72;}.cls-204{fill:#474758;}.cls-205{fill:#cdcddb;}.cls-206{fill:#9c9cb2;}.cls-207{fill:#a7a8be;}.cls-208{fill:#6d6c84;}.cls-209{fill:#606077;}.cls-210{fill:#4d4e61;}.cls-211{fill:#4b4d61;}.cls-212{fill:#676c85;}.cls-213{fill:#666a81;}.cls-214{fill:#f2f2f3;}.cls-215{fill:#f3f3f4;}.cls-216{fill:#827786;}.cls-217{fill:#c7d4cf;}.cls-218{fill:#dfdfe2;}.cls-219{fill:#f2f1f3;}.cls-220{fill:#9596ae;}.cls-221{fill:#e9eaec;}.cls-222{fill:#888a97;}.cls-223{fill:#bdb9c0;}.cls-224{fill:#9cbbaa;}.cls-225{fill:#9bbba3;}.cls-226{fill:#8a8895;}.cls-227{fill:#a69daa;}.cls-228{fill:#c9c1cc;}.cls-229{fill:#9491a4;}.cls-230{fill:#7e7b8e;}.cls-231{fill:#9d99a9;}.cls-232{fill:#c0c0d0;}.cls-233{fill:#807d90;}.cls-234{fill:#8a899e;}.cls-235{fill:#636279;}.cls-236{fill:#8d8ba0;}.cls-237{fill:#a5a1b0;}.cls-238{fill:#8e8da2;}.cls-239{fill:#a4a1b1;}.cls-240{fill:#b7b6c8;}.cls-241{fill:#5f6075;}.cls-242{fill:#626076;}.cls-243{fill:#c4c3d1;}.cls-244{fill:#928fa2;}.cls-245{fill:#4b4a5a;}.cls-246{fill:#8788a2;}.cls-247{fill:#b8b8c8;}.cls-248{fill:#b7b6c7;}.cls-249{fill:#b7b4c4;}.cls-250{fill:#8d8b9f;}.cls-251{fill:#615e71;}.cls-252{fill:#5c5b6d;}.cls-253{fill:#9593a6;}</style></defs><g id="Object"><g class="cls-1"><path class="cls-2" d="M113.2,182.48c-1.2,4.81-2.51,9.6-3.81,14.39-.33,1.23-.67,2.47-1,3.71-1.62,6-3.24,11.93-4.73,17.94-.63,2.55-1.31,5.25-3.12,7.16-.93-2.55-.71-5.36-.85-8.07-.36-7.2-3.27-14-5.62-20.78-2.19-6.36-3.9-12.88-5.61-19.39a51.13,51.13,0,0,1-1.89-9.71,51.87,51.87,0,0,1,.12-6.23l.39-6.4a6.54,6.54,0,0,1,.64-2.94c1.29-2.26,4.57-2.2,7.08-1.5a29,29,0,0,1,13.76,8.54,8.94,8.94,0,0,1,1.94,3c.46,1.37.36,2.95,1.18,4.14,1.55,2.27,4.21,2.64,3.91,5.84C115.27,175.59,114,179.16,113.2,182.48Z" transform="translate(-50.69 -50.99)"/><path class="cls-3" d="M129.09,147.08c.15,1.33.31,2.66.46,4,.85,7.44,1.7,14.87,2.13,22.34.1,1.79.13,3.74-.93,5.18a1.64,1.64,0,0,1-1.52.8c-.63-.13-1-.8-1.18-1.41-1.91-5.82,1.17-12.12.61-18.21a32.52,32.52,0,0,0-.6-3.53,107.86,107.86,0,0,1-2.39-16.55c-.08-1.74,1.47-6.79,2.25-2.85C128.58,140.17,128.71,143.71,129.09,147.08Z" transform="translate(-50.69 -50.99)"/><path class="cls-4" d="M121.81,104.45a13.31,13.31,0,0,1,2,6.36c0,.7-.3,1.63-1,1.57-.45,0-.73-.5-.94-.9a82.83,82.83,0,0,1-3.69-7.94c-.52-1.34-2.78-6.2-1.13-7.2.26.55.27,1.27.56,1.86a15.13,15.13,0,0,0,1.4,2C120,101.63,121,103,121.81,104.45Z" transform="translate(-50.69 -50.99)"/><path class="cls-5" d="M126.15,89.77l.12,4.15a1,1,0,0,1,0,.34.62.62,0,0,1-.79.3,1.35,1.35,0,0,1-.65-.64,5.42,5.42,0,0,1-.45-3.06c.07-.88-.14-3.9.71-4.24C126.37,86.11,126.13,89.1,126.15,89.77Z" transform="translate(-50.69 -50.99)"/><path class="cls-6" d="M159.83,201.23a.53.53,0,0,1,.22.41c0,.24.06.52-.12.67s-.18.09-.26.15a1.27,1.27,0,0,1-.13.11.28.28,0,0,1-.18,0c-.48,0-1.31-.44-1-1.05C158.52,201.09,159.45,201,159.83,201.23Z" transform="translate(-50.69 -50.99)"/><path class="cls-7" d="M232.82,93.55A10.59,10.59,0,0,1,230,96a70.32,70.32,0,0,0-9.61,8c-7.57,7.48-13.69,16.86-23.14,21.77-1.37.71-3.29,1.22-4.26,0a3.34,3.34,0,0,1-.56-1.28,50.06,50.06,0,0,1-1.13-5,8.6,8.6,0,0,1-.05-3.71,8.27,8.27,0,0,1,2-3.23c3.83-4.17,8.69-7.26,12.77-11.18,1.54-1.48,3-3.08,4.6-4.46a22.87,22.87,0,0,1,7.41-4.19c2.47-.85,5.34-.69,7.68-1.79,1.46-.68,2.58-2.24,4.27-2.35A3.09,3.09,0,0,1,232.82,93.55Z" transform="translate(-50.69 -50.99)"/><path class="cls-8" d="M100.72,117.27A69.51,69.51,0,0,0,91,108.2C85.52,103.86,79.78,99.9,74,96a100.84,100.84,0,0,0-16.52-9.44,2.22,2.22,0,0,0-2.5-.47c3,8,6.3,15.86,15.82,18.31a3.31,3.31,0,0,1,1.92,1.55,16.83,16.83,0,0,1,1.41,3.86,6.46,6.46,0,0,0,.73,1.55,2.83,2.83,0,0,0,2.22,1.2c3.47-2.92,1.61,1.45,2.59,1.91.47,1.28,1,2.52,1.58,3.79q.3.75.66,1.47c.31.77.62,1.54.92,2.31a16.46,16.46,0,0,0,2.5,5c1.23,1.4,2.59,2.31,3.9,0a5.55,5.55,0,0,0,.22-2.68c-1.35-4.83-2.61-9.69-5.43-13.9-.41-.72-.13.37-.25-.47-.09-.66,0-.73.06-.11.39.68.8,1.28,1.18,1.91a4.28,4.28,0,0,0,1.12,1.2,3.87,3.87,0,0,0,1.6.38c3.13-.22,4,2.12,5,4.38,1.61,2.53,1.49,6.76,6.15,6.33a5.2,5.2,0,0,0,2.36-1,2.5,2.5,0,0,0,.67-1.45c-.27-1.24-1.13-2.3-1.2-3.62Z" transform="translate(-50.69 -50.99)"/><path class="cls-9" d="M59.64,114.91c.64,4.24,2.56,8,4.23,11.89,1.43,1.09,3.17.31,4.69.79.45.2.9.41,1.34.64s.81.56,1.22.82.83.53,1.26.77c.64.38,1.29.74,2,1.08a11.26,11.26,0,0,0,1.37.62,36.2,36.2,0,0,1,4.16,1.75l1.29.81a11.2,11.2,0,0,0,2,1.2,11.07,11.07,0,0,0,2.32.63,22.52,22.52,0,0,0,4.1.5,2,2,0,0,0,1.55-1.89c-.12-2-1.29-3.36-2.59-4.68-3.28-3.07-6.26-6.67-11.33-6.72-1.25-.74-2.71-.82-4-1.32,0,0,.07-.11.07-.1,2,.46,3.79,1.46,5.87,1.49a1.94,1.94,0,0,0,1.14-1.28,5.49,5.49,0,0,0-.54-2.65c-1.16-2.47-3.07-4.38-4.83-6.41a10.23,10.23,0,0,0-1.31-1.24,8.37,8.37,0,0,0-1.53-1c-2.24-.9-4.44-2-7-1.55C62.2,110.07,60.76,112.34,59.64,114.91Z" transform="translate(-50.69 -50.99)"/><path class="cls-10" d="M145.91,130.51l2.43.4c2,.72,2.63-.89,3.51-2.08a4.58,4.58,0,0,0,.38-2.92,3.22,3.22,0,0,0-.08-.37,1.83,1.83,0,0,1,.24.18,16,16,0,0,0,1.49,1.29c1.77,1.58,1.65,3.79,2.1,5.83.5,2.29,1,4.75,4.41,3.89,2.54-2,3.24-4.92,3.91-7.86.64-6.83-3.13-13.59-.29-20.45.42-4.21,2.62-8.31.73-12.65-5.65,4.7-9.21,10.94-12.7,17.23-1,1.6-2.72,2.6-3.71,4.24C147.12,121.59,146.72,126.09,145.91,130.51Z" transform="translate(-50.69 -50.99)"/><path class="cls-6" d="M157.05,200.74c3.16,13.18,10.82,23.39,21,31.91a3.9,3.9,0,0,0,1.19.42l0,0a14.71,14.71,0,0,0,6.07,4.53c.67-5.79-3.17-9.64-6-13.93-1.79.44-3.23.39-4-1.82-1.07-3.23-2.29-6.4-2.41-9.85a9.34,9.34,0,0,0-.4-1.66c-.66-1.82-1.53-3.6-1-5.63,0-.29.05-.58.09-.87s0-.59,0-.88-.14-.58-.2-.88a10.38,10.38,0,0,0-.7-1.69c-1.2-1.87-2.39-3.77-5.07-3.44-2.6,3.65.12,7.1.4,10.64-.38,2.46.65,4.72,1.05,7.06,1.2,1.5,1.1,3.39,1.28,3.82.39,2.15,0,1.64.05,1.52a8.27,8.27,0,0,0-.93-4.63,18.19,18.19,0,0,1-1.56-7.73c-.78-3.64-1.82-7.24-1.41-11a5.4,5.4,0,0,0-1.11-2.68,3,3,0,0,0-2.57-1.15c-3,1.21-1.32,3.82-1.75,5.79.23,1.06,1.7,1.87.63,3.31-.07.74-1-.42-.17-.17.46.14.66-.31.52-.86a5.39,5.39,0,0,0-.75-1.72c-.5-1.2,0-2.61-.76-3.71-.5-.68-1.14-1.4-2.11-1-1.35.5-1,1.62-.78,2.66l-.07-.11C157.38,197.78,155.91,199.73,157.05,200.74Z" transform="translate(-50.69 -50.99)"/><path class="cls-11" d="M178.68,224q3.34,6.83,6.7,13.66a6,6,0,0,0,3.75,2.47c2.45.42,1.68-1.16,1.08-2.06-1.52-2.28-3.54-4.24-4-6.51a28.86,28.86,0,0,0,9.27,11.53,7.14,7.14,0,0,0,5,1.51,2.33,2.33,0,0,0-.08-2.34c-.66-1.42-2.17-1.75-3.24-2.63,1,.52,2.17.87,3.17.12,1.31-1,.67-2.25,0-3.32a37.7,37.7,0,0,0-3.86-4.87,15.85,15.85,0,0,0-1.15-1.31c-2.77-2.87-5.31-5.94-7.94-8.93-2.38-2.7-5-5.19-6.83-8.35-2.2-2.92-3.67-6.38-6.44-8.89a4,4,0,0,0-1.65-.54,2.68,2.68,0,0,0-1.55.71l0,0c-1.45,2.4.49,4.34.88,6.49l0,0c1.72,3.39,2.15,7.25,3.91,10.63C176.39,222.52,176.61,224.27,178.68,224Z" transform="translate(-50.69 -50.99)"/><path class="cls-12" d="M200.73,224.8a51.12,51.12,0,0,0-18.15-22.4c-.5-.86-2-.54-2.17-1.77v0c-2.58-.18-4.6-2.86-7.5-1.72a2.2,2.2,0,0,0-.78,1.54,4.91,4.91,0,0,0,.8,1.6,6,6,0,0,0,1.39,1.13c2,1.7,4.58,2.12,7,3.07.74.05-.24,1.12-.12.27,0-.22-.16-.24-.49-.35-1.35-.42-2.51-.48-3,1.23A5.54,5.54,0,0,0,180.1,212c3.89,2,2.81,7.82,7.21,9.43a31.68,31.68,0,0,1,7.61,4.73,12.13,12.13,0,0,0,1.31,1,13.35,13.35,0,0,0,2.17,1.09l.78.19a2.31,2.31,0,0,0,1.47-.51,4.22,4.22,0,0,0,.3-1.54A6.66,6.66,0,0,1,200.73,224.8Z" transform="translate(-50.69 -50.99)"/><path class="cls-13" d="M145.91,130.51c1.66-1.33,3-2.7,3-5.16,0-2.95.43-5.91.69-8.87a1.36,1.36,0,0,0-.1-2c-1.53-.52-3.11-.49-3.43-3-.36-2.9-1.87-3.65-4.45-2.64a9.05,9.05,0,0,1-4.26.49,3.14,3.14,0,0,0-3.43,3,5,5,0,0,0,1.1,4.2c1.15,1.24,2.44,2.36,3.67,3.53,1.74.13,4.32-1.58,4.45,2.17-1.38.73-3-1.41-4.39.24-1.74,3.43-1.89,6.81.41,10a3.71,3.71,0,0,0,3.18,1.71,1.78,1.78,0,0,0,1.94-1.16,14.21,14.21,0,0,1-1.14-1.51c.66,0,1.09.55,1.66.76A2.43,2.43,0,0,0,145.91,130.51Z" transform="translate(-50.69 -50.99)"/><path class="cls-14" d="M156.76,160.66c5.09-.19,9.66-2.39,14.37-3.93,2.71-.88,5.79-1,8-3.21,2.73-3.47,6.77-4.55,10.69-5.85l.05.05c.93-2.5,1.87-5-.51-7.28a2.75,2.75,0,0,0-3.19.61c-.73.22.83,1.53-.47,1.25-1.57-.35-3-1.27-4.7-1.24-4.47,1.4-6.3,5.94-9.94,8.32a15.09,15.09,0,0,0-1.17,1.09c-.37.34-.73.71-1.09,1.07l-.53.5c-.38.3-.74.62-1.12.92l-.61.39a26.83,26.83,0,0,1-2.75,1.19c-2.56,1.42-5.91,1.55-7.49,4.57A1.94,1.94,0,0,0,156.76,160.66Z" transform="translate(-50.69 -50.99)"/><path class="cls-15" d="M182.06,67.47a32.86,32.86,0,0,0-3.16,4.62c-3.29,7-7.6,13.4-11.34,20.12a3.08,3.08,0,0,0,2,1.09c2.54,2.79.33,6.16,1.16,9.15.34,1.2.37,2.76,2,2.8,1.13,0,1.8-1.08,2.21-2a84.81,84.81,0,0,0,4.65-14.59,8.08,8.08,0,0,0-.28-3.42,12.29,12.29,0,0,0-1-1.39c.34,0,.45.46.81.47a2.39,2.39,0,0,0,1.22-1.1c.53-2.22-.27-4.59.82-6.73a36,36,0,0,1,1.74-4C183.41,70.67,185.4,68.61,182.06,67.47Z" transform="translate(-50.69 -50.99)"/><path class="cls-16" d="M123.15,244.7a1.17,1.17,0,0,0-1.16.07c-1,1.7-2.66.56-4,.93l-1.27.24a9.31,9.31,0,0,1-1.65.73.72.72,0,0,0-.9.24c-.5,3.2-3.32,4-5.59,5.32A11.25,11.25,0,0,0,106,254c-1,1.05-2.32,2.15-1.34,3.78.7,1.16,2.09,1.32,3.39,1.3a16.68,16.68,0,0,0,4.93-1,68.28,68.28,0,0,0,6.39-3.64c3.27-1.92,6.48-4,10.58-3.36,3.61-.67,7.63-.33,10-4.07-1.63-1.67-3.73-1.76-5.86-1.76C130.5,244,126.8,244.85,123.15,244.7Z" transform="translate(-50.69 -50.99)"/><path class="cls-17" d="M162.1,258.91c-3.06-1-5.23-3.36-7.95-4.88-1.82-1-3.45-2.33-5.6-2.57-2.11-1.25-4.33-.7-6.54-.45-4.15,1.48-9.26.89-12,5.51a1.91,1.91,0,0,0,.35,1.85c2.2,1.59,4.35.61,6.51-.09,1.77-.53,3.11-2,4.91-2.16-3.35,3.52.15,3.91,2.33,4.28,5.58,1,11.32.53,16.89,1.8,1.33-.14,2.65-.3,2.5-2.15l-.06-.05A9.58,9.58,0,0,1,162.1,258.91Z" transform="translate(-50.69 -50.99)"/><path class="cls-18" d="M170.16,92.4l-2.6-.19a8,8,0,0,0-2.82,3.56c-1.8,4.11-1.72,8.5-2,12.84l0,.85c.55,1.74,1.79,3.45.23,5.28a3.9,3.9,0,0,0-.27,2.47,14.17,14.17,0,0,1,.78,3.27,3.38,3.38,0,0,0,1,1.4,2.89,2.89,0,0,0,3.06-1.1,5.15,5.15,0,0,0,.61-1.61,8.08,8.08,0,0,1,1.44-4.81,9.9,9.9,0,0,0,.69-1.76,27.19,27.19,0,0,0,.68-6C170,101.88,172.43,97,170.16,92.4Z" transform="translate(-50.69 -50.99)"/><path class="cls-19" d="M193.71,105.51c.3-7.53-.4-15.1,1.4-22.55a29.26,29.26,0,0,0,.3-5.64c-3.16-1.67-3.56.93-4.17,2.85s-.39,4.21-1.17,6.2c-1.27,13.71-4.38,27.06-8,40.32a4.11,4.11,0,0,0,.92,2.6c2.17.55,3.21-1,3.74-2.52,2.56-7.32,6-14.47,5.12-22.2a2.08,2.08,0,0,0,.91,2.19A1,1,0,0,0,193.71,105.51Z" transform="translate(-50.69 -50.99)"/><path class="cls-20" d="M93.73,263.36c5.16,2.76,10.06,6,15.56,8.15a11.12,11.12,0,0,0,4.23,1c2.28.8,4.56,1.32,6.88.17,1.2-3.5-1.79-3.61-3.69-4.6a12,12,0,0,0-1.72-.66c-2.79-.9-5.89-1.15-7.94-3.69-.53-2-2.2-3.05-3.72-4.21a7,7,0,0,0-1.69-.67,13.41,13.41,0,0,0-7.28.95C92.39,260.53,91.7,261.78,93.73,263.36Z" transform="translate(-50.69 -50.99)"/><path class="cls-21" d="M142,252.36c2.3.51,4.36-.82,6.58-.9A16.71,16.71,0,0,0,140,247l-10.76,3.2c-4.08-.79-6.6,2.41-9.82,3.83-1.59,1.19-3.58,2.31-.76,4.28a10.22,10.22,0,0,0,7.63-.13,11.11,11.11,0,0,0,3.17-1.86A17.76,17.76,0,0,1,142,252.36Z" transform="translate(-50.69 -50.99)"/><path class="cls-22" d="M194.91,231.39c1,2.61,3.46,4.15,4.86,6.47a1.09,1.09,0,0,1-.08,1,1.55,1.55,0,0,1-1.13.27c-1.95-.27-2.57-2.6-4.59-3-.66,1.9.83,2.75,1.82,3.56,1.77,1.46,3.82,2.58,4.69,4.89a36.66,36.66,0,0,0,13.88,3.19c.22-2.13-1.78-2.29-2.58-3.38a37.62,37.62,0,0,0-3-3.23c-3-2.55-5.66-5.41-8.56-8.05C198.77,231.74,197.33,230,194.91,231.39Z" transform="translate(-50.69 -50.99)"/><path class="cls-23" d="M101.59,121.43c0,.42-.06.83-.11,1.25l.36.65a7.67,7.67,0,0,0,1.18,1,6.24,6.24,0,0,0,2.18,1,5.32,5.32,0,0,0,1.69,0c2.62-2.1,4.29-5.19,8.62-5.16,2.52,0,2.74-3.16,2-5.58,0-1.76-1.21-2.64-2.54-3.28-.91-.44-2.09-.32-3-.78-1.36-.69-2.65-1.54-4-.17s-.34,2.74.15,4.1c.22.59.38,1.2.6,1.93l-4.28.59c-.87.43-1.25,1.4-2.07,1.9A4,4,0,0,0,101.59,121.43Z" transform="translate(-50.69 -50.99)"/><path class="cls-2" d="M99,181.61c1.22-6.28-2-10.92-5.84-15.19-1.53-1.7-3.31-3.18-4.52-5.15A1.43,1.43,0,0,1,89,159.1c.22-2.75-1-3.74-3.62-2.9-.1,1.35-.21,2.69-.31,4,1.48,7.87,4.14,15.14,10.55,20.48C96.61,181.45,97.65,182.17,99,181.61Z" transform="translate(-50.69 -50.99)"/><path class="cls-24" d="M85.35,156.2A5.67,5.67,0,0,1,89,159.1l.6.08h.6A2.18,2.18,0,0,0,92,157.74a5.85,5.85,0,0,0-.6-3.21c-.83-1.91-2.76-3.27-2.78-5.6-2.52-3.79-7.22-4.78-10.21-8a6.25,6.25,0,0,0-2.76-.61,3.44,3.44,0,0,0-2.56,1.2c1.73,3.86,4.64,6.8,7.54,9.76C82.22,152.92,83.78,154.57,85.35,156.2Z" transform="translate(-50.69 -50.99)"/><path class="cls-25" d="M203,98.13a21.69,21.69,0,0,0-6.73,6.13c0,.27-.09.55-.13.83-.79,1.94-2.94,2.73-3.86,4.56-1.22,2.22-2.36,4.45-1.07,7a2.42,2.42,0,0,0,1.66.73c1.77-.4,2.85-1.67,3.91-3,4.44-5.6,8.92-11.15,15.38-14.66,1.64-.9,3.17-2.16,3-4.42-2-2-3.92-.51-5.8.2C207.24,96.36,205.51,98.18,203,98.13Z" transform="translate(-50.69 -50.99)"/><path class="cls-26" d="M54.24,94.44q1.59,6.42,3.16,12.85c.86,0,.69-2.33,2.19-1s2.84,2.61,4.86,2.92c2-.85,3.82,1,5.78.21a2.37,2.37,0,0,0,.18-2.46,6.64,6.64,0,0,0-.93-1.47,6.87,6.87,0,0,0-1.36-1.05c-3.09-2.89-5.56-6.34-8.54-9.32-.41-.37-.81-.74-1.2-1.13l-.61-.55a7.89,7.89,0,0,0-1.35-.93l-.77-.26a2,2,0,0,0-1.47.54A4.11,4.11,0,0,0,54.24,94.44Z" transform="translate(-50.69 -50.99)"/><path class="cls-27" d="M141,270.7l1.17-.4c.76-.69,1.87-.41,2.69-.94h0c.65-.9,1.83-.58,2.63-1.12h0c.63-.89,1.82-.54,2.57-1.16l.08,0c.67-1.26,2.88-1.57,2.62-3.2-.32-2-2.37-2-3.95-2.3a26.36,26.36,0,0,1-6.07-1.28c-3.11-.85-6.23-1.89-9.18.45.76,6.55,6.37,3.86,9.4,5.23a55.13,55.13,0,0,1-7.62-1.05c-2.09-.38-4.26-.56-5.17,2.11a2.35,2.35,0,0,0,.62,1.61,2.37,2.37,0,0,1,2.69.71,7.6,7.6,0,0,0,2.45.81C137.62,270.52,139.39,269.9,141,270.7Z" transform="translate(-50.69 -50.99)"/><path class="cls-28" d="M117.31,94.07c2.3-3,2-6.56,2.12-10-.81-1.12-2.09-2-3.18-1.1-2.84,2.22-6.2,3.14-9.43,4.42a1.23,1.23,0,0,0-.4,2.06c1.8,1.63,3.17,3.91,5.86,4.34,1.45-2.13,2.47-.47,3.58.41A1.23,1.23,0,0,0,117.31,94.07Z" transform="translate(-50.69 -50.99)"/><path class="cls-29" d="M188.88,141.08c.29.48,1,1.1.82,1.41-.75,1.81.06,3.5.19,5.23,3.75-.95,6.52-3.35,9.07-6.08.17-3.4,4.06-4,5.09-6.75.19-2.4-2.45-2.37-3.35-3.87a5,5,0,0,0-1.68-.19c-2.53.48-5.47.3-6.24,3.73a4.53,4.53,0,0,0,1.5,1.85c1,2.25-1,1.7-1.94,2.07C190.94,139,188.73,138.47,188.88,141.08Z" transform="translate(-50.69 -50.99)"/><path class="cls-30" d="M191,87.31c1.21-.79,1.37-2,1.48-3.32.14-1.68.22-3.38.51-5,.22-1.23,1.3-1.53,2.4-1.64l1.2-16.65c-3.09-.15-2.87,2.41-3.28,4.24-.45,2-.38,4.1-1.27,6a61.59,61.59,0,0,1-3.9,11.5c-1.24,0,1.48,3.1-1.41,1.72-3.08,1.44-3.14,4.7-4.42,7.23a5.07,5.07,0,0,0-.17,1.69c.5,2.33,2.55,1.56,4,2C190,93.83,188.68,89.44,191,87.31Z" transform="translate(-50.69 -50.99)"/><path class="cls-31" d="M208.58,130.76a31.75,31.75,0,0,0,3.09-4c3.05-5.57,6-11.21,8.92-16.82-1.43-3.56-3.06-.84-4.63-.17-2.55,3.55-8.15,4.23-8.91,9.46,1.13,1.08,4.63.74,1.77,4.1a8,8,0,0,0-1.73,7.14A1,1,0,0,0,208.58,130.76Z" transform="translate(-50.69 -50.99)"/><path class="cls-32" d="M73.1,141.53l2.82.09c1.11-1.51-1-3,0-4.5.72-.69,1.67-1.18,2-2.21-.22-1.93-1.75-2.67-3.19-3.49-1.67-1.21-4.11-1.61-4.41-4.25-2-2.68-4.27-1.13-6.48-.37a12.4,12.4,0,0,0,.89,3C67.19,133.93,69.6,138.12,73.1,141.53Z" transform="translate(-50.69 -50.99)"/><path class="cls-33" d="M193.26,72c1.51-2.1,1.63-4.55,1.75-7,.07-1.61-.06-3.33,1.6-4.37,1.48-2.72,1.65-5.7,1.68-8.69a1.26,1.26,0,0,0-.66-.9,1.32,1.32,0,0,0-1.17.08c-2.42,2.33-5.31,4.29-6.49,7.67a5.89,5.89,0,0,1,0,4.48,10.18,10.18,0,0,0-.76,2.28,3.13,3.13,0,0,0,.35,1.56c1.43,1.35,1.34,3.39,2.21,5A1.08,1.08,0,0,0,193.26,72Z" transform="translate(-50.69 -50.99)"/><path class="cls-34" d="M216.67,110.78c.67-.44,1.36-.86,2-1.32.84-.59,1.46-.45,1.91.47a8.42,8.42,0,0,0,2.56-3.91c-.83-.62-1.24-1.24,0-1.89,1.22-1,1.94-2.51,3.58-2.92l8.8-7.26c.3-2.54-1.62-2.24-3.14-2.45a11.62,11.62,0,0,0-5.17,1.9c-2.14,1.93-5.2,2.75-6.68,5.49-.51,4.28-4.91,6.31-6,10.27a3.22,3.22,0,0,0,.48,1.74A1.27,1.27,0,0,0,216.67,110.78Z" transform="translate(-50.69 -50.99)"/><path class="cls-35" d="M194.91,231.39c2.12.11,3.31,1.62,4.46,3.09a29.73,29.73,0,0,0,6.55,5.72,10.23,10.23,0,0,0,2.89,1l-6.1-11.83a2.38,2.38,0,0,1-.87-1.86.58.58,0,0,0-.29-.76.75.75,0,0,0-1.2-.1l-.09,1.3a.8.8,0,0,1-1.28-.1l0,0c-.65-.79-1.85-.63-2.49-1.44h0c-1.55-.85-2.71-3-5.06-1.49-.26,2.94,2.7,4.17,3.49,6.52Z" transform="translate(-50.69 -50.99)"/><path class="cls-36" d="M206.25,147.48c-1-.81-1.88-1.68-2.9-2.41s-2.13-.81-2.68.38c-.66,1.42-1.68,1.45-3,1.66-2.09.34-2.61,1.92-1.64,3.75a9,9,0,0,0,4.68,4.09,5.2,5.2,0,0,0,1.85.81c2.47.06,3.68-1.54,4.59-3.52C207.68,150.5,207.8,148.83,206.25,147.48Z" transform="translate(-50.69 -50.99)"/><path class="cls-37" d="M117.53,114.45c-.16.82-.24,1.67-.48,2.48-.45,1.55-1.32,2.74-3.15,2.28-2.14-.53-4.09.31-6.17.35.82,3.83.82,3.83-2.51,4.67a2.45,2.45,0,0,0-.79,1.56,2.71,2.71,0,0,0,.76,1.59c4.69.28,7.9,2.87,10.36,6.64,3.56-2.25,2.15-5.29,1.35-8.24a3.15,3.15,0,0,1,.31-4.14,12.73,12.73,0,0,0,1-2.16C118.11,117.78,118.89,116,117.53,114.45Z" transform="translate(-50.69 -50.99)"/><path class="cls-38" d="M58.29,95.56c2.06,1.17,3.27,3.2,4.87,4.82s2.76,3.71,4.87,4.82l1.08,1.39-.06,0c2,1.48,3.66.82,5.12-.89-.39-1-.52-2.32-1.24-2.82s-2.15.74-3-.55c-1.16,1.16-2.09.94-3.06-.34-2.8-3.67-6.56-6.63-8.22-11.16C58,89,55.58,88.45,55.09,86.44c-.12-.76-.89-.91-1.3-1.4a9.81,9.81,0,0,0-1.59-.79c-.72-.22-1.75-.56-1.46.85S51,87.93,52.12,89c1.33.47,1.8,1.8,2.72,2.69.34.4.71.78,1.09,1.15h0a15.61,15.61,0,0,0,1.18,1.4v0C57.46,94.67,57.9,95.09,58.29,95.56Z" transform="translate(-50.69 -50.99)"/><path class="cls-39" d="M96.55,180.16c-3.17-2.76-4.25-7.09-7.41-9.87-1-.92-.54-2.41-1-3.53-.9-2.23-.32-5.2-3.1-6.53L85,164c.57,1,.1,2.29.9,3.24.35,3.44,1.36,6.76,2,10.16a5.86,5.86,0,0,0,2.73,4.48c2,.63,3.18,3.69,5.78,2C97.75,183,97.41,181.48,96.55,180.16Z" transform="translate(-50.69 -50.99)"/><path class="cls-40" d="M141,270.7c-1.07-2.35-3.29-1.75-5.17-2-2.15,1.15-4.27.17-6.4-.06a5,5,0,0,0-1.61.33,15.11,15.11,0,0,0-1.43.77c-1.94.92-4.41,0-6.11,1.76a3.47,3.47,0,0,1-3.2,1.13c-1.19-.05-2.38-.06-3.57-.09a6.13,6.13,0,0,0,1.63.9C124,275.1,132.72,274.66,141,270.7Z" transform="translate(-50.69 -50.99)"/><path class="cls-41" d="M172.48,200.44c1.09-1.37,2.19-.7,3.27,0,1.53,1,3.06,1.38,4.65.17-3.09-4.53-7.94-6.73-12.41-9.44-.67-.79-1.88-.6-2.54-1.41h0c-1.22-.92-2.88-1.47-3.61,0-1.07,2.12,1.83,2.7,2.38,4.32C167.41,195.61,168.54,199.86,172.48,200.44Z" transform="translate(-50.69 -50.99)"/><path class="cls-42" d="M93.73,263.36c-.18-.91-1-2.09.7-2.33,2.85-.41,5.72-.69,8.58-1,1.44-1.45,1.15-2.82-.2-4.14-3.5-1.45-6.28,2.32-9.71,1.34-3,1.81-5.86,3.71-9.55,3.82a3.29,3.29,0,0,0-2.61,1.5,2,2,0,0,0,1.28,1.24c.75-.31,1.52-.56,2.24-.92,2.33-1.17,4.59-1.47,6.94,0A6.9,6.9,0,0,0,93.73,263.36Z" transform="translate(-50.69 -50.99)"/><path class="cls-43" d="M128.11,88.48,128,89.72c-.44.53-.34.92.29,1.18.86,1,.17,1.18-.72,1.41-3.53.91-3.52.93-3.91,4.87.88,1.41,1.84,2.69,3.77,2.52a6.68,6.68,0,0,0,1.59-.31A14.34,14.34,0,0,0,132,98a4.58,4.58,0,0,0,1.56-2,6.49,6.49,0,0,0,.17-2.63c-.43-2-.16-4.21-1.73-5.87C130.34,86.49,129.22,87.48,128.11,88.48Z" transform="translate(-50.69 -50.99)"/><path class="cls-44" d="M203,98.13c.42.81,1.09,1.48,2,1.17a23.85,23.85,0,0,0,4-1.89c1.84-1.08,3.66-2.12,5.87-2.19,3.75,1.16,6.09-1,8.3-3.51-.07-1.12-.45-1.88-1.79-1.43A31,31,0,0,0,203,98.13Z" transform="translate(-50.69 -50.99)"/><path class="cls-45" d="M133.57,101.7a4,4,0,0,0,1.74,2.47c1.45,1,3,.45,3.29-1.26s.49-2.92,2.66-3.4,2.3-2.2.62-3.61a20,20,0,0,0-2.63-1.63c-4.48-1.77-4.64,2.34-6.2,4.55A3.79,3.79,0,0,0,133.57,101.7Z" transform="translate(-50.69 -50.99)"/><path class="cls-46" d="M155.77,197.06c.28-.7.33-1.71,1.26-1.75.39,0,1,.67,1.19,1.16.49,1.06.3,2.42,1.48,3.17h0c.08-1.18.17-2.37.25-3.55a3.18,3.18,0,0,1,1.72-2.89c.27-2.2-1.37-3.11-2.77-4.2-.41-.27-.84-.51-1.27-.74s-.84-.47-1.26-.7-.82-.48-1.24-.7c-.62-.36-1.26-.69-1.9-1a5.28,5.28,0,0,0-1.4-.43,2.24,2.24,0,0,0-2,.81l.62,1.17a3.71,3.71,0,0,0,.83,1.37Z" transform="translate(-50.69 -50.99)"/><path class="cls-47" d="M93.25,236.59c-4.54,5.25-7.62,11.49-11.66,17.08a2.75,2.75,0,0,0,1.16,2.66,141,141,0,0,0,9.89-14.79c.82-.61.58-1.87,1.48-2.43l0,0C94.93,237.87,95.18,236.84,93.25,236.59Z" transform="translate(-50.69 -50.99)"/><path class="cls-48" d="M144.73,166.48c-2.75,4.5-4.84,9.4-8.08,13.63a6.73,6.73,0,0,0-.6,2.43,1.78,1.78,0,0,0,1.14.88,2.7,2.7,0,0,0,2-.7,14.5,14.5,0,0,0,1.4-1.63,5.45,5.45,0,0,0,.77-1.18c.05-.22.09-.46.14-.69-.15-1.62.8-2.83,1.6-4.06a48.29,48.29,0,0,0,4.31-8.48A1.94,1.94,0,0,0,144.73,166.48Z" transform="translate(-50.69 -50.99)"/><path class="cls-49" d="M64.94,108.87l-6.84-5.25c-.31,1.63-.5,2.65-.7,3.67-.08,2.78,1.3,5.14,2.24,7.62,2.56-.85,3.57-3.54,5.71-4.88A.83.83,0,0,0,64.94,108.87Z" transform="translate(-50.69 -50.99)"/><path class="cls-50" d="M226.08,164.62c-.43-1.67-1.23-2.93-3.11-1.81-1.71,1-3.17,1.93-5.14.4-.69-.54-2.11.74-2.11,1.75,0,2.53.78,4.6,3.34,5.61,2.14.76,2.92-1.38,4.39-2a13.32,13.32,0,0,0,1.37-1C225.67,166.75,226.38,165.9,226.08,164.62Z" transform="translate(-50.69 -50.99)"/><path class="cls-51" d="M163.54,260.05a2.89,2.89,0,0,1-2.79,1.06c-1.81-.68-3.63-1.31-5.39.14-.42,2.11,1.39,2.63,2.56,3.61,4.07.23,8.15-.39,12.32.45A9.53,9.53,0,0,0,163.54,260.05Z" transform="translate(-50.69 -50.99)"/><path class="cls-52" d="M89.29,190.22c.57,4.24,1.41,8.39,4.48,11.67,1.68.63,2-.6,2.48-1.74a9.58,9.58,0,0,0-1.93-6.2c-.19-.35-.65-.73-.5-1.08.33-.78-.37-.16.4.25a1.82,1.82,0,0,0,1.34,0,2,2,0,0,0,1-1.91,4.15,4.15,0,0,0-.33-1.59,6.38,6.38,0,0,0-1.06-1.36l-.7-.53C91.94,187,89.64,186.58,89.29,190.22Z" transform="translate(-50.69 -50.99)"/><path class="cls-53" d="M144.73,166.48l2.71.2,3-3.35c0-.22,0-.44,0-.67.09-.67.13-1.36.25-2s.47-1.4.65-2.13a7,7,0,0,0,.11-1.64,24.34,24.34,0,0,1-.17-3.52c-.53-3.28,2.22-7.34-2.29-9.67a43.74,43.74,0,0,0-.57,4.36A51.89,51.89,0,0,1,144.73,166.48Z" transform="translate(-50.69 -50.99)"/><path class="cls-54" d="M104.18,221.72c-.55,1.06-1.58,1.09-2.57,1.22-.29.57-.62,1.08-1.38,1-.46-.39-.84-.3-1.15.2-.49,1.23-1,2.47-1.48,3.7.64,1-.25,2,0,3.07a1.93,1.93,0,0,0,1,1.15,49.44,49.44,0,0,1,10.08-11.28,34.13,34.13,0,0,0,3.42-3.67,2,2,0,0,0-1.59-1.78A12,12,0,0,0,104.18,221.72Z" transform="translate(-50.69 -50.99)"/><path class="cls-55" d="M89.29,190.22c1.47-1.92,3.25-2.46,5.42-1.2,1.74-3.9-1.78-5.45-3.48-7.81A4.45,4.45,0,0,1,89,177.1c-2.52-.25-2,1.3-1.61,2.74A27.26,27.26,0,0,0,89.29,190.22Z" transform="translate(-50.69 -50.99)"/><path class="cls-56" d="M93.1,257.2c.77,1.27,2,1.22,3.21,1.06a14.53,14.53,0,0,0,5.62-2.13c2.93-.88,5.68-2,7.19-5-.22-1-.64-1.73-1.85-1.12C102.14,251.62,97.83,254.83,93.1,257.2Z" transform="translate(-50.69 -50.99)"/><path class="cls-57" d="M219.76,176.06c.23.55.45,1.57.69,1.58a45.83,45.83,0,0,0,6.42-.23c1-.12,1.46-1.29,1.94-2.18-.33-1.42-.12-3.07-1.71-3.95C220.81,170.16,220,170.69,219.76,176.06Z" transform="translate(-50.69 -50.99)"/><path class="cls-58" d="M231.84,92.53c1.34.19,2.89-.18,3.68,1.42,1.72-.73,3.46-1.43,5.16-2.21a1.31,1.31,0,0,0,.62-1c0-.33-.39-.66-.65-1a1,1,0,0,0-.52-.33c-4.5-.68-9-1.74-13.51-.18a2.61,2.61,0,0,0,1.84,1.53C230.39,89.77,230.2,93,231.84,92.53Z" transform="translate(-50.69 -50.99)"/><path class="cls-59" d="M191.81,193l0,.54c-.51,1.36-1,2.71,0,4.05l-.21.39c1.43.54,2.85,1,4.24-.1.43-.75.36-1.79,1.3-2.25l1.15-1.48c1.88-2.07.67-4-.19-6a2.33,2.33,0,0,0-1.59-.83,7.66,7.66,0,0,0-4.94,3.93A2.35,2.35,0,0,0,191.81,193Z" transform="translate(-50.69 -50.99)"/><path class="cls-60" d="M192.22,191.32a8.54,8.54,0,0,0,4-3.57.94.94,0,0,0,.47-1.14,1.63,1.63,0,0,0-1.1-.75,1.86,1.86,0,0,1-1.68-1h0c-4.07-.75-7.05,0-7,5,.37,1.16,1.32,1.39,2.35,1.49C190.26,191.84,191.26,192.25,192.22,191.32Z" transform="translate(-50.69 -50.99)"/><path class="cls-61" d="M125.49,85.53l1.36-1.34a14.12,14.12,0,0,0,.64-4.93c-.2-1.57-.73-1.75-2.64-.71-.17.09-.29.32-.46.39-1.15.46-2.06-1.79-3.15-.43-1,1.2-.41,2.82-.5,4.25l3.71,2.79C124.81,86.28,125.16,86.24,125.49,85.53Z" transform="translate(-50.69 -50.99)"/><path class="cls-62" d="M200.72,194.67l1.24,1.44a2.52,2.52,0,0,0,2.87.18c1.31-.2,2.48-.69,2.81-2.11a4.76,4.76,0,0,0-.88-4.14c-.89-1.13-2.55-1.52-3-3.1a2,2,0,0,0-2.44-.45,3.08,3.08,0,0,0-.92,2.38,43.45,43.45,0,0,1,.28,5C200.71,194.12,200.71,194.39,200.72,194.67Z" transform="translate(-50.69 -50.99)"/><path class="cls-63" d="M203.9,164.2c.56,1.19,1.66,1.62,2.5.79,1.54-1.52,2.27-3.86,5.08-3.87.81,0,1-1.32.77-2.14-.31-1.2-.82-2.36-1.24-3.53l0,0-2.16-.49c-2.15-1.39-3.49-.23-4.65,1.48.59,1.79,2.8,3.74-.49,5.17A4.8,4.8,0,0,0,203.9,164.2Z" transform="translate(-50.69 -50.99)"/><path class="cls-40" d="M157.92,264.86c.12-1.71-.86-2.43-2.38-2.65a14.75,14.75,0,0,0-12.84-.75,3.36,3.36,0,0,0,2.62,1.37c2,.14,4.07.26,6.13.39-.27,1.44-2.95,1.9-1.29,3.83Z" transform="translate(-50.69 -50.99)"/><path class="cls-64" d="M189.43,66.64l.37-1.24a1.86,1.86,0,0,0,.7-1.44c-.86-2.25-2.58-1.62-4.22-1.27a9.52,9.52,0,0,0-4.22,4.78,1.67,1.67,0,0,1,.64,2.17c-.38,1-.75,2-1.13,2.92-.13,2.36,1.11,1.46,2.08.81,1.76-1.16,2-3.61,3.83-4.7a4.3,4.3,0,0,0,1.39-.64A2.13,2.13,0,0,0,189.43,66.64Z" transform="translate(-50.69 -50.99)"/><path class="cls-65" d="M133.74,99.06c1.39-.61,1.86-2,2.56-3.16a3.32,3.32,0,0,1,2.95-1.63c0-.39,0-.78-.08-1.17-.38-.87-1.35-1-2-1.57-.26-.65-.54-1.3-1.34-1.46l-.36.27.31-.33c-.53-2-2.11-2.37-3.83-2.55-.07,1.23-.14,2.46-.22,3.69a3,3,0,0,0,1.07,2.74,1.63,1.63,0,0,1-.25,2.56l-1.36.8C131.46,98.68,132.56,98.93,133.74,99.06Z" transform="translate(-50.69 -50.99)"/><path class="cls-66" d="M212.76,190.11a5.3,5.3,0,0,0-2.08,4.32,2.14,2.14,0,0,0,2.62,1.94c2.23-.83,4.09-2,4.34-4.71a5.87,5.87,0,0,1-.65-2,4.58,4.58,0,0,0-1.64-2.36,2.1,2.1,0,0,0-1.44.14C213.07,188.14,213.5,189.38,212.76,190.11Z" transform="translate(-50.69 -50.99)"/><path class="cls-67" d="M138.72,122.51c1.83-.1,2.9,1.42,4.4,2,.45.17,1.22-.21,1.74-.5,1.14-.63-.12-.85-.26-1.28a1.8,1.8,0,0,1-.09-1.11,2.62,2.62,0,0,0-.58-2.88c-.77-.85-2.18-.82-3.06-1.79-.3-.33-1.24.38-1.27,1a2.3,2.3,0,0,1-.94,2.13c-.53.68-1.08,1.3-2.07,1.14C136.85,122.42,137.85,122.36,138.72,122.51Z" transform="translate(-50.69 -50.99)"/><path class="cls-68" d="M156.54,188.87l1.19.61a3.06,3.06,0,0,0,1.72-2.86c-5-3.17-10.74-4-16.68-4.92.7,1.9,2.33,1.36,3.25,2.13s2,1.48,3,2.22a3,3,0,0,1,3.79.32h0c.65.77,1.84.61,2.47,1.43h0A4.42,4.42,0,0,0,156.54,188.87Z" transform="translate(-50.69 -50.99)"/><path class="cls-69" d="M195.45,243.06c-3.92-4.47-7-9.53-11-15.48.31,5.11,2.5,7.81,4.86,10.44.64.71.79,1.44-.13,2.08A13,13,0,0,0,195.45,243.06Z" transform="translate(-50.69 -50.99)"/><path class="cls-70" d="M206.2,170.76c-3.83-.56-7.38-2.59-11.39-2.17-.87.64-2,.25-2.88.61a2.18,2.18,0,0,0-1.3,1.74c.62.82,1.53,2.17,2.4,1.36,2.11-2,4.26-1,6.37-.53,1.42.33,2.74,1.07,4.28.85.74-.46,1.64-.16,2.41-.47a.87.87,0,0,0,.39-.9C206.4,170.93,206.31,170.77,206.2,170.76Z" transform="translate(-50.69 -50.99)"/><path class="cls-71" d="M214.1,187.73l1.37,0,.68.52a2.07,2.07,0,0,0,1.34-.93c.53-1.41.57-2.73-.77-3.77a6.23,6.23,0,0,1-2.22-.94l.08-.31a2.57,2.57,0,0,0-2.73-.17c-3.43,2.27-3.54,3.08-.77,5.55A3.29,3.29,0,0,0,214.1,187.73Z" transform="translate(-50.69 -50.99)"/><path class="cls-72" d="M128.61,98.82c-1.67-.51-3.74.17-5-1.64a13.43,13.43,0,0,0,.88,7.95c.67,1.34,0,2.41-.34,3.58.45.79,1,.84,1.55.14,1.9-1.7,2.6-4.16,4-6.18C126.32,102.25,129.31,100,128.61,98.82Z" transform="translate(-50.69 -50.99)"/><path class="cls-73" d="M137.7,182.82l-1.65-.28,0,0c-.6.78-.51,1.94-1.39,2.57-1.11,0-1.58-.95-2.24-1.61a3,3,0,0,0-1.22,2.61c.21,1.7.52,3.35,2.06,4.42a26.27,26.27,0,0,1,8.52-6.11c1.29-.61.91-1.63,1.1-2.55a1.79,1.79,0,0,0-1.34-.65C140,181.19,139.59,183.76,137.7,182.82Z" transform="translate(-50.69 -50.99)"/><path class="cls-74" d="M201.32,187l2.47,0a3.59,3.59,0,0,0,1.64-2.37,4.7,4.7,0,0,0,.23-4.9l-1.21-.37c-.82.77-1.91.57-2.88.84h0a3.21,3.21,0,0,1-1.67,2.43,3.88,3.88,0,0,0-1.74,2.57,3.39,3.39,0,0,0,.3,1.57,2.68,2.68,0,0,0,1.38.77A2.62,2.62,0,0,0,201.32,187Z" transform="translate(-50.69 -50.99)"/><path class="cls-75" d="M99.69,213.58c2.52-2.45,1.25-5.59,1.39-8.41.1-2-1.47-3.41-3.14-4.48-2.38,2-.17,4.53-.88,6.71C97.31,209.73,98.88,211.49,99.69,213.58Z" transform="translate(-50.69 -50.99)"/><path class="cls-76" d="M159.45,186.62a3.21,3.21,0,0,0-1.72,2.86l3.94,3.72,1.09,1.11a1.54,1.54,0,0,0,1.13,1.06,2,2,0,0,0,1.56-.38,1.27,1.27,0,0,0-.17-1.51c-.89-1.11-1.77-2.23-2.82-3.55l3-.17A12.24,12.24,0,0,0,159.45,186.62Z" transform="translate(-50.69 -50.99)"/><path class="cls-77" d="M225.73,191.11c2.91-2.9,2.92-3,.44-5.45-2.11-.86-4.17-1.32-5.91.74a3.16,3.16,0,0,0,0,3.12l.09-.11a9.9,9.9,0,0,1,1.36,1.14l-.09.27A3.73,3.73,0,0,0,225.73,191.11Z" transform="translate(-50.69 -50.99)"/><path class="cls-29" d="M189.85,147.67a12.85,12.85,0,0,0-2.43.22c-1.61.46-3.28-1.47-4.69,0a23.71,23.71,0,0,0-2.76,4c-.32.52-.54,1.1-.81,1.65A21.2,21.2,0,0,0,189.85,147.67Z" transform="translate(-50.69 -50.99)"/><path class="cls-78" d="M219.76,176.06c.61-1-.16-3,1.23-3.16,1.88-.27,3.62-2.46,5.71-.62,1.18-.45,1.91-1.18,1.58-2.57-1.28-1.62-3.52-1.4-5-2.6-2.15.24-2.57,2.59-4.2,3.46C219.14,172.42,218.48,174.36,219.76,176.06Z" transform="translate(-50.69 -50.99)"/><path class="cls-79" d="M126.51,132c.2-1.71.39-3.42.59-5.13-.38-3.11-.58-6.24-2-9.13-.39-.58-.84-.66-1.35-.17.48,2.84,1,5.66,1.44,8.5.25,1.63.59,3.34-1.16,4.46l-.64.63c-.57,1.55-.61,2.91,1.29,3.57C126.2,134.43,125.8,132.87,126.51,132Z" transform="translate(-50.69 -50.99)"/><path class="cls-80" d="M107.27,250l1.4,1.43a1.53,1.53,0,0,0,1.25,1.46c1.48-.73,3-1.38,4.42-2.23,1.7-1,1.64-1.44-.14-3.79A17.3,17.3,0,0,0,107.27,250Z" transform="translate(-50.69 -50.99)"/><path class="cls-81" d="M156.06,173.88a25,25,0,0,0-10.81,5.1c-.68.53-.67,1,0,1.53a76.07,76.07,0,0,0,12-5.43A2.18,2.18,0,0,0,156.06,173.88Z" transform="translate(-50.69 -50.99)"/><path class="cls-82" d="M223.41,183.09c1.39-1.11,1.64-2.4.3-3.62a2.61,2.61,0,0,0-3.82.38,18.44,18.44,0,0,0-1.75,2.51C219.33,186.7,221.29,185.48,223.41,183.09Z" transform="translate(-50.69 -50.99)"/><path class="cls-83" d="M223.41,183.09c-1.87.58-3.88,2.19-5.27-.73l-2.38.51-.45.45.33.54c1.52,1,1.12,2.53,1.09,4a3.29,3.29,0,0,0,1.3,2.91l1.35-1.22c.77-.74,0-2.25,1.36-2.71a9.17,9.17,0,0,1,5.43-1.14C225.75,184.27,223.58,184.76,223.41,183.09Z" transform="translate(-50.69 -50.99)"/><path class="cls-84" d="M203.9,164.2c.17-1,.33-2,.49-3a2.72,2.72,0,0,0,.22-3.67c.78-1.93,2.4-2.46,4.27-2.57a3.3,3.3,0,0,0-.16-.93c.76-1.07.09-1.61-.78-2.07a2.05,2.05,0,0,0-1.69.42c-1.59.58-2.17,2.86-4.29,2.53-.4,1.19.38,1.92,1,2.71C203.21,159.85,202.18,162.22,203.9,164.2Z" transform="translate(-50.69 -50.99)"/><path class="cls-85" d="M203,157.66c.32-1.15-.73-1.79-1-2.71h-1.25c.33,2.08-.85,3.43-2.14,4.84-1.51,1.65-3.77,2.54-4.76,4.7-.34.21-.47.44-.4.7s.17.4.27.41C197.64,164,200.21,160.69,203,157.66Z" transform="translate(-50.69 -50.99)"/><path class="cls-86" d="M133.28,190.55c-.15-1.5.32-3.16-1.2-4.27a2.27,2.27,0,0,0-1.71,1,3.09,3.09,0,0,0-.28,1.27,3.32,3.32,0,0,1-.52,1.83c-.5.8-1,1.59-1.49,2.4a6.24,6.24,0,0,0-1.12,3.71c.3.82.71,1.47,1.76,1.11A24,24,0,0,0,133.28,190.55Z" transform="translate(-50.69 -50.99)"/><path class="cls-87" d="M82.75,256.33a2.75,2.75,0,0,0-1.16-2.66,11.89,11.89,0,0,0-3.1,3.81c-1.4,2.16-1.38,2.17,1.27,5l-.1.1C79.73,260,81.9,258.5,82.75,256.33Z" transform="translate(-50.69 -50.99)"/><path class="cls-88" d="M87.43,179.84c.25-1.08.43-2.2,1.61-2.74q-1.5-5.17-3-10.34c-.5.13-.73.36-.69.68s.12.55.25.56A28.81,28.81,0,0,0,87.43,179.84Z" transform="translate(-50.69 -50.99)"/><path class="cls-89" d="M97.06,207.4a2.65,2.65,0,0,0,1.53-3.07c-.22-1.21-.43-2.43-.65-3.64h0c-.62-.91-1.22-1.85-2.58-1.4a2.93,2.93,0,0,1-1.64,2.61A14.89,14.89,0,0,0,97.06,207.4Z" transform="translate(-50.69 -50.99)"/><path class="cls-90" d="M93.25,236.59a3.11,3.11,0,0,1,.89,2.5,17.58,17.58,0,0,0,4.5-7q-.15-.37-.33-.75c-.82-.59-.09-1.9-1.11-2.4A33.63,33.63,0,0,0,93.25,236.59Z" transform="translate(-50.69 -50.99)"/><path class="cls-91" d="M186.28,62.69c.95,1.16,2.79.06,3.66,1.44a.81.81,0,0,0,1.26.08,11.61,11.61,0,0,0,.88-1.57c.87-2.31.73-2.53-2.1-3.8A10.75,10.75,0,0,0,186.28,62.69Z" transform="translate(-50.69 -50.99)"/><path class="cls-92" d="M201.32,187l-1.39-.09a.7.7,0,0,1-1.1-.24l.12-.21-.78-.4-.83.31a1.25,1.25,0,0,0,0,1.58c.32,2.07.63,4.14.95,6.21l2.43.53a2,2,0,0,0,.49-.46c.16-.93-.18-1.84-.11-2.76,0-.46.05-.92.08-1.38l.06-.68C201.27,188.59,201.29,187.78,201.32,187Z" transform="translate(-50.69 -50.99)"/><path class="cls-93" d="M123.79,117.6l1.35.17.57-8.92-1.55-.14c-.8,1.84-1.66.26-2.49,0l-.63.47.46.63a1.18,1.18,0,0,1,.09,1,1.22,1.22,0,0,0,.66.91l.38.43s-.43.39-.43.4a1,1,0,0,0,.25,1.13A8,8,0,0,1,123.79,117.6Z" transform="translate(-50.69 -50.99)"/><path class="cls-94" d="M203.45,134.32c-1.08,2-3.14,3.1-4.59,4.75a1.59,1.59,0,0,0,.1,2.57c2.42-2.27,5.28-4.12,6.86-7.19a1.55,1.55,0,0,0-1.14-.79A1.65,1.65,0,0,0,203.45,134.32Z" transform="translate(-50.69 -50.99)"/><path class="cls-95" d="M182.18,168c-1.78.18-3.55.4-5.33.53-1,.08-2,.19-2.57,1.17l-.07-.09,12.62.93c.78-.91.21-1.46-.53-2C184.94,168.34,183.51,168.56,182.18,168Z" transform="translate(-50.69 -50.99)"/><path class="cls-96" d="M195.83,197.17c-1.23,1.18-2.74.92-4.23.8,1.12,1.78,3.72,1.51,4.77,3.49.25.48,1.13.18,1.64-.26s.86-1,.57-1.6a30,30,0,0,0-1.65-2.61C196.46,196.39,196.09,196.41,195.83,197.17Z" transform="translate(-50.69 -50.99)"/><path class="cls-97" d="M121.59,207.39a32,32,0,0,0,5.65-7.34c-.25-.78-.54-1.52-1.46-1.73-1.84.25-2.48,1.82-3.41,3.08-.32.41-.63.83-.94,1.25-.17.2-.32.42-.49.62a7.4,7.4,0,0,0-.87,1.35,3.88,3.88,0,0,0-.21,1.59C120.15,207,120.57,207.64,121.59,207.39Z" transform="translate(-50.69 -50.99)"/><path class="cls-98" d="M186,169.07l.88,1.51c1.18,1,2.59-.35,3.79.36l1.64-1.42a9.72,9.72,0,0,1-2.42-2.65c-1.1-.81-2.1-1.28-2.75.53-.1.3-.66.44-1,.66-.55.16-.75.36-.61.61S185.78,169.06,186,169.07Z" transform="translate(-50.69 -50.99)"/><path class="cls-99" d="M186.9,189.93c.71-3.94,4-4.25,7-5-2.31-1.94-4.58-1.44-6.74.23a3.49,3.49,0,0,0-1.29,2.73A2,2,0,0,0,186.9,189.93Z" transform="translate(-50.69 -50.99)"/><path class="cls-100" d="M211.85,182.15l2.73.17c-1.16-2.12-2.3-4.24-3.46-6.35a2.93,2.93,0,0,0-2.41-1.58l-.2.24C209.14,177.35,211.76,179.18,211.85,182.15Z" transform="translate(-50.69 -50.99)"/><path class="cls-101" d="M204.83,196.29l-2.87-.18a16.64,16.64,0,0,0-1.15,2.78,1.71,1.71,0,0,0,.66,1.49,2,2,0,0,0,1.64-.31C204.42,199.19,204.37,197.61,204.83,196.29Z" transform="translate(-50.69 -50.99)"/><path class="cls-102" d="M113.44,215.88a23.46,23.46,0,0,0,5.66-6c-.09-.28-.17-.56-.25-.84a2.58,2.58,0,0,0-1.4-1l-.86.15a13.52,13.52,0,0,0-4.21,4.24,4.19,4.19,0,0,0-.5,1.62,2.5,2.5,0,0,0,.78,1.46C112.91,215.66,113.18,215.77,113.44,215.88Z" transform="translate(-50.69 -50.99)"/><path class="cls-103" d="M206.2,170.76c0,.38-.06.75-.11,1.12a1.15,1.15,0,0,0-.59,1.06,1.44,1.44,0,0,0,.61,1.09l2.4.59.2-.23c-.56-2.56-.56-2.52,1.55-2.48,1.64,0,3.29,0,4.94-.09l.05-.81Z" transform="translate(-50.69 -50.99)"/><path class="cls-80" d="M123.15,244.7c1.09.58,2.16,1.51,3.48,1.05,2.46-.87,5-.15,7.46-.49A15.63,15.63,0,0,0,123.15,244.7Z" transform="translate(-50.69 -50.99)"/><path class="cls-104" d="M116.11,94.05a7.78,7.78,0,0,0-.3-1.82c-.51-1.23-1.39-2.17-2.85-1.6-1.66.65-1,2-.68,3.13l.4.36h.54a4.47,4.47,0,0,0,2.3.49Z" transform="translate(-50.69 -50.99)"/><path class="cls-105" d="M161.12,173.93c2.31-.68,4.62-1.39,6.94-2a2.47,2.47,0,0,0,1.88-1.3l-.66.1c-2.89-.45-5.53.46-8.15,1.51C160.42,172.79,160.42,173.35,161.12,173.93Z" transform="translate(-50.69 -50.99)"/><path class="cls-106" d="M55.83,91.7A30.18,30.18,0,0,0,54,88.8c-.58-.73-1.3-.62-1.87.16a16.15,16.15,0,0,0,2.12,5.48c.15-.56.3-1.11.44-1.67C55.08,92.43,55.46,92.07,55.83,91.7Z" transform="translate(-50.69 -50.99)"/><path class="cls-80" d="M118,245.7a6,6,0,0,1,.68,1c.57,1.34,1.1,1.56,2,.8a4.06,4.06,0,0,0,1.33-2.75A4.25,4.25,0,0,0,118,245.7Z" transform="translate(-50.69 -50.99)"/><path class="cls-107" d="M145.29,180.51c0-.51,0-1,0-1.53l-3.72.24.08-.07c-.42.35-.81.71-1.2,1.08l-1.56,1.24c.56.93,1.3.84,2.1.35l2,.07Z" transform="translate(-50.69 -50.99)"/><path class="cls-53" d="M156.76,160.66c0-.48,0-.95,0-1.43-3.73-1.85-5.53.13-6.69,3.37.14.25.29.49.44.73l3.69-1.57c.5-.27,1-.56,1.47-.88A4,4,0,0,0,156.76,160.66Z" transform="translate(-50.69 -50.99)"/><path class="cls-108" d="M128.64,98.59c1,.33,2.46-.1,2.46,1.66,1.11,0,1.67.93,2.47,1.45.06-.88.12-1.76.17-2.64a3.26,3.26,0,0,0-2.53-1.81A4,4,0,0,0,128.64,98.59Z" transform="translate(-50.69 -50.99)"/><path class="cls-109" d="M229.23,89.8l-2.61-.48c-1.77.21-3.65-.22-5.25,1,.47.5.94,1,1.4,1.52C225.4,92.68,228.09,93.74,229.23,89.8Z" transform="translate(-50.69 -50.99)"/><path class="cls-110" d="M225.73,191.11l-4.14-.29a6.31,6.31,0,0,0,.66,1c.76.75.33,2.79,2.08,2.33C225.67,193.79,225.47,192.23,225.73,191.11Z" transform="translate(-50.69 -50.99)"/><path class="cls-111" d="M189.84,166.87a2.28,2.28,0,0,0,2.42,2.65,2.54,2.54,0,0,0,2.55-.93c-.38-.09-.75-.2-1.13-.26-2.26-.42-2.26-.41-1.28-2.65l.06.1A2.81,2.81,0,0,0,189.84,166.87Z" transform="translate(-50.69 -50.99)"/><path class="cls-112" d="M149.46,114.48c0,.67.06,1.34.1,2,2.49-.23,2.55-.33,2.48-3.48A2.76,2.76,0,0,0,149.46,114.48Z" transform="translate(-50.69 -50.99)"/><path class="cls-113" d="M122.91,129.15c.16-2.75-2.09-4-3.64-5.6l-.54.68a3.68,3.68,0,0,0-.16,1.71,4.67,4.67,0,0,0,3.53,3.52Z" transform="translate(-50.69 -50.99)"/><path class="cls-114" d="M226.72,101.21c-2.83-.56-3.62,1.65-4.72,3.46a1.21,1.21,0,0,0,1.8.29A9.85,9.85,0,0,0,226.72,101.21Z" transform="translate(-50.69 -50.99)"/><path class="cls-4" d="M117.31,94.07a2.56,2.56,0,0,1-1.2,0l0,0c-.7.53-.72,1.07-.06,1.64a5.1,5.1,0,0,0,2.27,5C118.8,98.37,117.46,96.31,117.31,94.07Z" transform="translate(-50.69 -50.99)"/><path class="cls-115" d="M121.59,207.39l-1.2-1.75c-1.76.13-3,.75-2.54,2.84l.39.39c.16.18.32.37.49.55l.37.45A6.07,6.07,0,0,0,121.59,207.39Z" transform="translate(-50.69 -50.99)"/><path class="cls-99" d="M199.11,181.53c-.22,1.34-1.83,2.1-1.52,3.65-.39.32-.51.62-.35.89s.29.39.44.4a5.39,5.39,0,0,0,1.27,0c-.08-1.41.87-2.39,1.47-3.51a1.12,1.12,0,0,0-.18-1.83A3,3,0,0,0,199.11,181.53Z" transform="translate(-50.69 -50.99)"/><path class="cls-116" d="M215.25,171a3.21,3.21,0,0,0-.05.82l5.16-1.13C218,169.72,216.52,169.4,215.25,171Z" transform="translate(-50.69 -50.99)"/><path class="cls-117" d="M204.74,134.4l1.08,0c1-1.15,2.31-2.11,2.76-3.69-.32,0-.65,0-1,0a1.47,1.47,0,0,0-1.75-.38C204.37,131.38,203.51,132.6,204.74,134.4Z" transform="translate(-50.69 -50.99)"/><path class="cls-118" d="M137.19,91.53c-.06,1.44,1,1.47,2,1.57.89-.26,1.45-.86,1.13-1.74-.39-1.07-1.3-.65-2.05-.4A7.76,7.76,0,0,0,137.19,91.53Z" transform="translate(-50.69 -50.99)"/><path class="cls-119" d="M209.05,146.1c-.07,1.16-.06,2.29,1.15,3,.85-.65,1.43-1.43.84-2.5A1.25,1.25,0,0,0,209.05,146.1Z" transform="translate(-50.69 -50.99)"/><path class="cls-120" d="M126,198.34l1.25,1.71c.49-.83,1-1.65,1.48-2.47l-1.18-1.47C125.82,196,125.56,196.94,126,198.34Z" transform="translate(-50.69 -50.99)"/><path class="cls-121" d="M161.12,173.93c0-.57,0-1.13,0-1.7-1.42.19-2.93.13-4,1.41a2.06,2.06,0,0,0,1.18,1.19Z" transform="translate(-50.69 -50.99)"/><path class="cls-122" d="M205.66,179.67c-.07,1.63-.15,3.26-.23,4.9C207.25,182.16,207.27,181.75,205.66,179.67Z" transform="translate(-50.69 -50.99)"/><path class="cls-8" d="M103.05,119.11a2.72,2.72,0,0,0,1.46-2.27l-3.79.43-.3.46C100.48,119.74,101.64,119.68,103.05,119.11Z" transform="translate(-50.69 -50.99)"/><path class="cls-123" d="M169.28,170.72a4.92,4.92,0,0,0,.67-.1c1.52.14,3.18.85,4.26-1l.07.09C172.5,169.5,170.64,168.83,169.28,170.72Z" transform="translate(-50.69 -50.99)"/><path class="cls-124" d="M219.6,195.92c-.87.22-1.54.66-1.28,1.67.06.23.83.53,1,.41a7.33,7.33,0,0,0,1.19-1.35Z" transform="translate(-50.69 -50.99)"/><path class="cls-125" d="M220.74,186.8c-.44-.32-.89-.92-1.3-.89-.7.05-.61.72-.46,1.31.18.75.27,1.53.4,2.29l.43.12.42-.11Z" transform="translate(-50.69 -50.99)"/><path class="cls-126" d="M82.22,263.76l-1.28-1.24c-.43,0-.85,0-1.28.05l.1-.09C80.09,264.86,80.12,264.88,82.22,263.76Z" transform="translate(-50.69 -50.99)"/><path class="cls-127" d="M97.2,228.91c.24.86-.13,2,1.11,2.41.13-1.24.43-2.51-.71-3.48A2.06,2.06,0,0,0,97.2,228.91Z" transform="translate(-50.69 -50.99)"/><path class="cls-106" d="M53.79,85l1.3,1.4,2.4.09A3.52,3.52,0,0,0,53.79,85Z" transform="translate(-50.69 -50.99)"/><path class="cls-128" d="M210.06,151.41a3.36,3.36,0,0,0-2.74,1.07l1.4,1.59,1.25-1.36a.81.81,0,0,0,.35-.84c-.08-.29-.16-.44-.26-.45Z" transform="translate(-50.69 -50.99)"/><path class="cls-129" d="M211,155.45c.83,0,1.74,0,2.27-.74.16-.24,0-.75-.12-1.13a1.19,1.19,0,0,0-.57,0,2.88,2.88,0,0,0-1.55,1.87Z" transform="translate(-50.69 -50.99)"/><path class="cls-130" d="M186,169.07a5.69,5.69,0,0,1,.12-1,7.14,7.14,0,0,0-3.89,0C183.22,169.19,184.62,169,186,169.07Z" transform="translate(-50.69 -50.99)"/><path class="cls-46" d="M157.05,200.74c.08-1.45.46-3-1.35-3.79A5.08,5.08,0,0,0,157.05,200.74Z" transform="translate(-50.69 -50.99)"/><path class="cls-131" d="M111,216l1.1,1.15,1.3-1.23-.47-.22-.45-.51-.2-.56C111.13,214.33,110.5,214.59,111,216Z" transform="translate(-50.69 -50.99)"/><path class="cls-2" d="M85.61,168c.15-.41.29-.83.44-1.24A3.77,3.77,0,0,0,85,164C84.62,165.44,84.49,166.82,85.61,168Z" transform="translate(-50.69 -50.99)"/><path class="cls-132" d="M218,190.73c-.24-1-.18-2.25-1.3-2.91l0,0a1.7,1.7,0,0,0-.29,2.47c.38.47.77.93,1.16,1.4A.92.92,0,0,0,218,190.73Z" transform="translate(-50.69 -50.99)"/><path class="cls-83" d="M214.1,187.73l-3,0c.41.91,1.66,1.23,1.68,2.41A2.33,2.33,0,0,0,214.1,187.73Z" transform="translate(-50.69 -50.99)"/><path class="cls-76" d="M152.83,186.37c-1.8-1.79-1.82-1.8-3.79-.32l.38.26.45-.09Z" transform="translate(-50.69 -50.99)"/><path class="cls-92" d="M191.81,197.58c0-1.35,0-2.7,0-4.05C190.32,195.69,190.32,195.69,191.81,197.58Z" transform="translate(-50.69 -50.99)"/><path class="cls-122" d="M200.24,181.1l.18,1.83a2.48,2.48,0,0,0,1.13-2.79A1.1,1.1,0,0,0,200.24,181.1Z" transform="translate(-50.69 -50.99)"/><path class="cls-133" d="M158.35,174.83l-1.18-1.19a1.66,1.66,0,0,0-1.11.24l1.22,1.2A1.41,1.41,0,0,0,158.35,174.83Z" transform="translate(-50.69 -50.99)"/><path class="cls-122" d="M201.57,180.14a2.29,2.29,0,0,0,2.88-.84A2.21,2.21,0,0,0,201.57,180.14Z" transform="translate(-50.69 -50.99)"/><path class="cls-92" d="M192.22,191.32l-3,.1,2.56,1.57C192,192.43,192.08,191.88,192.22,191.32Z" transform="translate(-50.69 -50.99)"/><path class="cls-92" d="M197.68,186.47l-.09-1.29-1.28-.25a4.87,4.87,0,0,1-1.19.26c-.34.25-.46.5-.36.76s.2.39.31.4l1,.32a1,1,0,0,0,1.37,0Z" transform="translate(-50.69 -50.99)"/><path class="cls-134" d="M118.1,103.25c1.51-1.11,1.51-1.11.14-2.62C118.2,101.5,118.15,102.37,118.1,103.25Z" transform="translate(-50.69 -50.99)"/><path class="cls-135" d="M223.8,105l-1.8-.29c-.72,1.12-.72,1.12,1.15,1.35A3,3,0,0,0,223.8,105Z" transform="translate(-50.69 -50.99)"/><path class="cls-136" d="M206.1,172.88a2,2,0,0,0,0-1,2.07,2.07,0,0,0-2.41.74,6.3,6.3,0,0,0,1,.45A.9.9,0,0,0,206.1,172.88Z" transform="translate(-50.69 -50.99)"/><path class="cls-76" d="M165.45,189.76a2.51,2.51,0,0,0,2.54,1.41A2.41,2.41,0,0,0,165.45,189.76Z" transform="translate(-50.69 -50.99)"/><path class="cls-137" d="M100.53,219c-.33.2-.76.33-1,.61s0,.65.07,1c.25-.16.62-.27.71-.49a3.7,3.7,0,0,0,.1-1.16Z" transform="translate(-50.69 -50.99)"/><path class="cls-41" d="M180.41,200.63c.15,1.3,1,1.73,2.17,1.77A3.27,3.27,0,0,0,180.41,200.63Z" transform="translate(-50.69 -50.99)"/><path class="cls-90" d="M94.12,239.11a2.36,2.36,0,0,0-1.48,2.43A3.09,3.09,0,0,0,94.12,239.11Z" transform="translate(-50.69 -50.99)"/><path class="cls-40" d="M144.87,269.36a2.37,2.37,0,0,0-2.69.94A2.44,2.44,0,0,0,144.87,269.36Z" transform="translate(-50.69 -50.99)"/><path class="cls-40" d="M147.51,268.24a2.19,2.19,0,0,0-2.63,1.12A2.49,2.49,0,0,0,147.51,268.24Z" transform="translate(-50.69 -50.99)"/><path class="cls-40" d="M150.08,267.08a2.17,2.17,0,0,0-2.57,1.16A2.66,2.66,0,0,0,150.08,267.08Z" transform="translate(-50.69 -50.99)"/><path class="cls-28" d="M116,95.72l.06-1.64-2.86,0C114.16,94.64,115.09,95.18,116,95.72Z" transform="translate(-50.69 -50.99)"/><path class="cls-80" d="M115.1,246.67a1.58,1.58,0,0,0,1.65-.73A1.47,1.47,0,0,0,115.1,246.67Z" transform="translate(-50.69 -50.99)"/><path class="cls-51" d="M162.1,258.91c.22.67.58,1.16,1.38,1.09C163.39,259.16,162.88,258.87,162.1,258.91Z" transform="translate(-50.69 -50.99)"/><path class="cls-92" d="M195.83,197.17c.37,0,.74-.11,1.1-.18l.21-1.37A1.7,1.7,0,0,0,195.83,197.17Z" transform="translate(-50.69 -50.99)"/><path class="cls-68" d="M151.32,188.76a1,1,0,0,0-.84-1.37A1.12,1.12,0,0,0,151.32,188.76Z" transform="translate(-50.69 -50.99)"/><path class="cls-22" d="M201.84,227.46a1.77,1.77,0,0,0,.87,1.86A1.69,1.69,0,0,0,201.84,227.46Z" transform="translate(-50.69 -50.99)"/><path class="cls-22" d="M200.35,226.6l.6.06.6,0a1.85,1.85,0,0,0-.82-1.9C200.61,225.4,200.48,226,200.35,226.6Z" transform="translate(-50.69 -50.99)"/><path class="cls-83" d="M221.68,190.55a1.57,1.57,0,0,0-1.36-1.14A1.12,1.12,0,0,0,221.68,190.55Z" transform="translate(-50.69 -50.99)"/><path class="cls-99" d="M195.07,186.35c0-.39,0-.77.05-1.16l-1.2-.28A1.69,1.69,0,0,0,195.07,186.35Z" transform="translate(-50.69 -50.99)"/><path class="cls-82" d="M215.64,183.86a6.69,6.69,0,0,1,.12-1l-1.26-.24Z" transform="translate(-50.69 -50.99)"/><path class="cls-138" d="M193.68,165.6c0-.37.09-.74.13-1.11-.77.09-1.3.43-1.35,1.29l-.06-.1Z" transform="translate(-50.69 -50.99)"/><path class="cls-14" d="M155.63,160.88l-1.47.88Z" transform="translate(-50.69 -50.99)"/><path class="cls-139" d="M206.1,172.88l-1.39.19,1.39,1Z" transform="translate(-50.69 -50.99)"/><path class="cls-25" d="M193.71,105.51c-.06.42-.13.85-.2,1.27l.63.34a1.47,1.47,0,0,0,1.09-.81c0-.23-.11-.46-.16-.7Z" transform="translate(-50.69 -50.99)"/><path class="cls-25" d="M196.29,104.26l-1.22,1.35.14.17a1.15,1.15,0,0,0,1.29-1.11Z" transform="translate(-50.69 -50.99)"/><path class="cls-140" d="M124.07,130.56a1.28,1.28,0,0,0-1.16-1.41l-.09.06c-.25,1.1.07,1.64,1.28,1.33Z" transform="translate(-50.69 -50.99)"/><path class="cls-141" d="M149.06,143.67c1,1.23.84,2.71.79,4.14-.08,2.47-.21,4.95-.32,7.42,5.74-2.08,6.7-7.18,7.77-12.22-2.36-4.73-2-10.58-6.13-14.58l-2.83,2.48Z" transform="translate(-50.69 -50.99)"/><path class="cls-142" d="M130.86,188.63c.07-.48.15-1,.22-1.43,1-1.87-.47-4.23,1.19-6a4.38,4.38,0,0,0-.74-4.14,3.88,3.88,0,0,0-1.51.31l-.68.37c-1.07.72-2.27,1.34-2.44,2.84-.12.62.88,1.34-.18,1.88a3.14,3.14,0,0,0-.28,1.56c1.46,2.7.54,6.21,3,8.55a3.28,3.28,0,0,0,1.29-2.46A1.45,1.45,0,0,0,130.86,188.63Z" transform="translate(-50.69 -50.99)"/><path class="cls-143" d="M130,155.4c-.11-4.27-1.05-8.53-.33-12.82a2,2,0,0,0-1.69-.84,2,2,0,0,0-1.52,1.11c-.22,4.22-1.1,8.53,1.69,12.34A1.69,1.69,0,0,0,130,155.4Z" transform="translate(-50.69 -50.99)"/><path class="cls-144" d="M144.77,132.36a18.74,18.74,0,0,0-.26-2.5c-.33-1.37-1.19-1.67-2.22-.69-.7.65-2.08,1-1.77,2.29s1.4,1.41,2.48,1.51l1.25.14A.59.59,0,0,0,144.77,132.36Z" transform="translate(-50.69 -50.99)"/><path class="cls-145" d="M127.3,142.24c.41.07.83.12,1.25.15a3.68,3.68,0,0,0,.31-3.77c0-.88,0-1.77,0-2.66a2.57,2.57,0,0,0-1.65-.74,2.21,2.21,0,0,0-1.51,1A5.55,5.55,0,0,0,127.3,142.24Z" transform="translate(-50.69 -50.99)"/><path class="cls-146" d="M132.27,181.24c-1.53.71-2.2,1.77-1.62,3.5a16.64,16.64,0,0,1,.43,2.46l1-.92.36-2.76C132.39,182.76,132.33,182,132.27,181.24Z" transform="translate(-50.69 -50.99)"/><path class="cls-147" d="M127.64,135.93l.6,0,.6,0c.33-2.82.33-2.82-2.33-3.93-1.05.46-1.23,1.42-1.34,2.4a.91.91,0,0,0,.86.79A1.89,1.89,0,0,1,127.64,135.93Z" transform="translate(-50.69 -50.99)"/><path class="cls-3" d="M129.38,171.87l1.35-1.26c0-1.61,0-3.23-.07-4.85l-1.27,1.17C127.86,168.57,127.78,170.22,129.38,171.87Z" transform="translate(-50.69 -50.99)"/><path class="cls-148" d="M131.45,173.6c-1.67,1.25-1,3.22-1.47,4.84l1.55-1.34C131.5,175.93,131.48,174.77,131.45,173.6Z" transform="translate(-50.69 -50.99)"/><path class="cls-48" d="M134.68,185.13a2.33,2.33,0,0,0,1.39-2.57A2.75,2.75,0,0,0,134.68,185.13Z" transform="translate(-50.69 -50.99)"/><path class="cls-149" d="M94.12,117.12a29.42,29.42,0,0,0-2.28-4.35,3.76,3.76,0,0,0-2.59-1.47c-.84,0-1.68.94-2.52,1.46-1,4.3,2.19,7.56,2.85,11.44.14.51.31,1,.47,1.53.29.71.64,1.4,1,2.1.19.47.4.93.62,1.38.31.73.63,1.44,1,2.14a5,5,0,0,0,1.13,1.21,2.4,2.4,0,0,0,1.66.27c.25-.17.48-.34.73-.5,1.87-2.85.62-5.52-.34-8.28C95,121.81,93.06,119.82,94.12,117.12Z" transform="translate(-50.69 -50.99)"/><path class="cls-150" d="M73.73,113.5,78.59,120a11.91,11.91,0,0,1,1.1,1.44,7.33,7.33,0,0,1,0,1.15c-.73.93-2.19.16-2.86,1.24.15.14.29.38.45.4,4.51.59,7.65,3.28,10.36,6.66a3.47,3.47,0,0,0,2.87.47c1.14-2.28.78-3.85-2-4.31-1,.76-1.6.07-2-.64-1.07-2-2-4.1-3-6.15l-1-1.37h0c-.77-.73-1.42-1.57-2.12-2.37a17.38,17.38,0,0,0-3.4-3.4c-1.09-.53-1.23-1.63-1.58-2.61a1.82,1.82,0,0,0-.14-1c-1.29-.74-2.14,0-3,.89a1.55,1.55,0,0,0,.19,1.58l.06-.06A3.59,3.59,0,0,1,73.73,113.5Z" transform="translate(-50.69 -50.99)"/><path class="cls-151" d="M94.12,117.12a2.5,2.5,0,0,0-1.07,3.25c.89,2.79,1.88,5.55,2.65,8.38a3.1,3.1,0,0,1-1.33,3.84,3.16,3.16,0,0,0,1.24,4.15c2.87-.39,2.7-3,3.51-4.86.51-2.27-.06-4.63.53-6.91a2.87,2.87,0,0,0-.75-2.4c-1.18.34-2.32.74-2.89-1C95.49,120.06,94.75,118.61,94.12,117.12Z" transform="translate(-50.69 -50.99)"/><path class="cls-152" d="M91,125.89c-.43-4.7-2.63-8.82-4.27-13.13h0a10.18,10.18,0,0,1-1.14-1.32l-1.32-2.53c-1.14-.43-1.73-.21-1.35,1.14,1.48,4.08,2.95,8.16,4.45,12.22a23,23,0,0,0,1,2.19C89.14,125.15,89.49,126.57,91,125.89Z" transform="translate(-50.69 -50.99)"/><path class="cls-153" d="M76.4,113.42a7.39,7.39,0,0,0,3.52,4c1.09-.37.73-1.63,1.39-2.26-.36-1.79-.69-3.58-1.09-5.36A2.11,2.11,0,0,0,78.71,108c-1.4,1-.36,3.32-2.2,4.07-.41.27-.56.55-.45.86S76.28,113.41,76.4,113.42Z" transform="translate(-50.69 -50.99)"/><path class="cls-154" d="M91,125.89l-2.61-1.44c0,.86,0,1.73.08,2.59,1.29,1,1.58,2.63,2.19,4-.27,2.68,1.47,4.42,2.93,6.3a2,2,0,0,0,1.53.39,1,1,0,0,0,.51-.85c0-.34,0-.52-.14-.52-.37-1.27-.75-2.54-1.12-3.81h-.1a15.58,15.58,0,0,0-1-1.45h0c-.81-.67-.46-1.88-1.2-2.58v0c-.69-.75-.4-1.89-1.08-2.65Z" transform="translate(-50.69 -50.99)"/><path class="cls-155" d="M72.62,110.63l2.65-1.12a6.93,6.93,0,0,0-1.1-3.85l-5.12.89c.36.85.71,1.71,1.07,2.56C70.52,110.33,71.2,111.09,72.62,110.63Z" transform="translate(-50.69 -50.99)"/><path class="cls-37" d="M103.05,119.11a3.92,3.92,0,0,1-2.63-1.38c-1.8,2.16-1.66,2.61,1.17,3.7A2.81,2.81,0,0,0,103.05,119.11Z" transform="translate(-50.69 -50.99)"/><path class="cls-156" d="M82.9,110l1.35-1.14c-.5-.87-.94-1.77-1.51-2.58-.31-.44-.84-.93-1.44-.47a1.12,1.12,0,0,0-.14,1.06C81.68,108,82.31,109,82.9,110Z" transform="translate(-50.69 -50.99)"/><path class="cls-155" d="M81.31,115.12a2.48,2.48,0,0,0-1.39,2.27,2.67,2.67,0,0,0,2.59,1.5Z" transform="translate(-50.69 -50.99)"/><path class="cls-157" d="M98.9,122.57c0,.8,0,1.59,0,2.39,2,.55,2.9-.21,2.65-2.28h0Z" transform="translate(-50.69 -50.99)"/><path class="cls-155" d="M76.4,113.42c0-.44.07-.89.11-1.33l-1.11-1.58A2.59,2.59,0,0,0,76.4,113.42Z" transform="translate(-50.69 -50.99)"/><path class="cls-155" d="M82.48,118.88l1,1.37Z" transform="translate(-50.69 -50.99)"/><path class="cls-149" d="M85.57,111.43l1.14,1.32Z" transform="translate(-50.69 -50.99)"/><path class="cls-158" d="M73.94,132.47c1.26.91,2.84,1.38,3.72,2.79a4.45,4.45,0,0,0,4.51,2.44,5.71,5.71,0,0,0,3.22-1.57,1.06,1.06,0,0,0-.26-1.52l-2.35-.39c-.45-.37-.87-.77-1.28-1.17v0c-1.88-1.15-4.21-1.14-6.08-2.31C74.34,130.82,73.59,131.17,73.94,132.47Z" transform="translate(-50.69 -50.99)"/><path class="cls-159" d="M76.79,123.82c1.1-.07,2.2-.15,2.86-1.24-3.05-.56-5.74-2.4-8.9-2.57C72.53,122.7,72.53,122.7,76.79,123.82Z" transform="translate(-50.69 -50.99)"/><path class="cls-152" d="M72.62,110.63l-2.5-1.52c-.91-.3-1.84-.54-2.71-.92a1.8,1.8,0,0,0-2.47.68,5.92,5.92,0,0,1,.41,1.16c2.53.12,4.56,2.11,7.16,2C72.55,111.53,72.59,111.08,72.62,110.63Z" transform="translate(-50.69 -50.99)"/><path class="cls-160" d="M73.94,132.47l1.41-1.28q.62-.41.39-.78c-.14-.23-.29-.35-.44-.35-.41-.05-.81-.12-1.21-.19a15,15,0,0,1-1.26-1.26l-1.23-.16a15.11,15.11,0,0,1-1.24-1.29h0c-1,.11-2.51.19-1.27,1.57S72.3,131.25,73.94,132.47Z" transform="translate(-50.69 -50.99)"/><path class="cls-161" d="M94.1,137.65a4.94,4.94,0,0,0-1.27-3.48c-.79-1-1.45-2.06-2.17-3.09l-3.06-.2L90.32,135c.61,1.12,1.06,2.35,2.34,2.93l.77.09Z" transform="translate(-50.69 -50.99)"/><path class="cls-32" d="M75.3,130.06a10.8,10.8,0,0,0,0,1.13,10,10,0,0,0,6.16,1.88C79.88,131.15,77.55,130.69,75.3,130.06Z" transform="translate(-50.69 -50.99)"/><path class="cls-162" d="M92.65,137.5A4,4,0,0,0,90.32,135l-1.19,1c-.1.29-.21.58-.31.88C89.83,138.59,91.12,138.69,92.65,137.5Z" transform="translate(-50.69 -50.99)"/><path class="cls-162" d="M85.13,134.61c.07.38.12.76.16,1.15a2.54,2.54,0,0,0,3.7.39l.14-.19C88.14,134.49,86.62,134.6,85.13,134.61Z" transform="translate(-50.69 -50.99)"/><path class="cls-32" d="M81.5,133.05l1.28,1.17Z" transform="translate(-50.69 -50.99)"/><path class="cls-155" d="M79.69,121.43,78.59,120Z" transform="translate(-50.69 -50.99)"/><path class="cls-32" d="M72.83,128.61l1.26,1.26Z" transform="translate(-50.69 -50.99)"/><path class="cls-32" d="M70.36,127.16l1.24,1.29Z" transform="translate(-50.69 -50.99)"/><path class="cls-155" d="M73.73,113.5a1.93,1.93,0,0,0-1.16-1.58Z" transform="translate(-50.69 -50.99)"/><path class="cls-163" d="M156.6,142.76c-2,4.37-3.51,9-7.07,12.47l1.05,2.66c2.67.6,3.19-1.8,4-3.24a206.67,206.67,0,0,0,17.21-36.82,5.1,5.1,0,0,0-1.3-3.6,1.22,1.22,0,0,0-1.72,0v0c-1.74,1.31-.77,3.48-1.62,5.06-.12.41-.23.83-.35,1.24-.49,1.33-1.78,2.07-2.44,3.28-.95,1.69-.56,3.79-1.62,5.45-1.07,2.46-2.13,4.91-3.2,7.36-2.05.86-2.84,2.63-3.33,4.61A2.43,2.43,0,0,0,156.6,142.76Z" transform="translate(-50.69 -50.99)"/><path class="cls-164" d="M156.6,142.76c.09-.37.19-.75.29-1.12.79-5.51.16-10.76-2.94-15.54-.51-1.14-1.58-1.47-2.65-1.8v0c0,1.39-.08,2.78-.13,4.17,1.07,3.82,2.15,7.63,3.19,11.45A4.38,4.38,0,0,0,156.6,142.76Z" transform="translate(-50.69 -50.99)"/><path class="cls-165" d="M162.79,129.19c1.66-1.3,1.62-3.51,2.72-5.11-.63-.73-.06-1.94-1-2.53a6.87,6.87,0,0,1,0-1.2c-.7-.76-.35-1.9-1-2.68,0-.86.05-1.72.08-2.58.94-2.31-.36-4.34-.83-6.48h0c-2.44,2.41-1.66,5.43-1.36,8.23C161.8,121,162.88,125,162.79,129.19Z" transform="translate(-50.69 -50.99)"/><path class="cls-166" d="M154,126.1a117.24,117.24,0,0,1,2.94,15.54c1.61-1.32,1.58-3.51,2.7-5.09a3.48,3.48,0,0,1-2.2-3.52c.16-2.18-.55-4.17-1-6.21C156,125.2,154.92,125.82,154,126.1Z" transform="translate(-50.69 -50.99)"/><path class="cls-167" d="M151.3,124.3c.26-.33.53-.66.77-1,.49-.74.89-1.53-.12-2.14-.29-.17-1-.17-1.12,0a2.61,2.61,0,0,0-.6,1.66c.09.52.69,1,1.07,1.44Z" transform="translate(-50.69 -50.99)"/><path class="cls-168" d="M178.68,224c-1.51-3.85-3.05-7.68-4.51-11.55a2.74,2.74,0,0,0-2.33-1.76c-.83,5.69,1.42,10.58,4.06,15.35.43.78,1,1.44,1.91.83.42-.3.56-1.05.74-1.63A6.28,6.28,0,0,0,178.68,224Z" transform="translate(-50.69 -50.99)"/><path class="cls-169" d="M165.07,195.12q-.63-.13-1.26-.21c-.31.24-.43.48-.35.74s.17.4.27.41c-.22,4-.7,8.08,1.88,11.66.37.64.78.69,1.23.07.47-2.79-1.07-5.33-1-8.09,0-.83-.28-1.63.51-2.26C166.93,196.12,166.17,195.53,165.07,195.12Z" transform="translate(-50.69 -50.99)"/><path class="cls-170" d="M165.07,195.12l1.25,2.32a11.33,11.33,0,0,1,3.59,4,5.71,5.71,0,0,0,1.2,1.43h0a2.85,2.85,0,0,0,1.25,1.34c.33.1.66.19,1,.27a1.26,1.26,0,0,0,1.55.19c.77-1.43-.4-2.08-1.18-2.88l0,0q-.63-.63-1.2-1.32h0a21,21,0,0,1-3-3.18,13.5,13.5,0,0,0-4.19-3.78C165.21,194,165.14,194.58,165.07,195.12Z" transform="translate(-50.69 -50.99)"/><path class="cls-80" d="M166.84,207.79l-1.23-.07c-.28,2.86-.33,5.67,2,7.85l0,0C167.41,213,167.12,210.37,166.84,207.79Z" transform="translate(-50.69 -50.99)"/><path class="cls-168" d="M171.86,210.69c.49-2.27-.91-4.28-.88-6.49a2.43,2.43,0,0,0-1.07,3.27C170.37,208.65,170.71,209.92,171.86,210.69Z" transform="translate(-50.69 -50.99)"/><path class="cls-80" d="M167.66,215.57c0,1.46-.41,3,1,4.13a.64.64,0,0,0,.52.09c.17-.06.42-.26.41-.39a5,5,0,0,0-1.88-3.86Z" transform="translate(-50.69 -50.99)"/><path class="cls-46" d="M159.7,199.64a14.61,14.61,0,0,0,0,1.75,2.26,2.26,0,0,0,.37,1c.76-.15.81-.81.62-1.35a6.24,6.24,0,0,0-1-1.39Z" transform="translate(-50.69 -50.99)"/><path class="cls-168" d="M172.35,204.22a1.76,1.76,0,0,0-1.25-1.34c0,.44-.09.89-.14,1.34Z" transform="translate(-50.69 -50.99)"/><path class="cls-168" d="M171.11,202.88l-1.2-1.43Z" transform="translate(-50.69 -50.99)"/><path class="cls-46" d="M163.73,196.06c0-.38.07-.77.08-1.15a4.2,4.2,0,0,0-1.05-.6A2,2,0,0,0,163.73,196.06Z" transform="translate(-50.69 -50.99)"/><path class="cls-11" d="M179.31,233.1c.19-.1.54-.22.53-.3,0-.42-.27-.33-.56.27Z" transform="translate(-50.69 -50.99)"/><path class="cls-22" d="M194.93,231.41c.38-2.47-2.06-3.77-2.82-5.83,1.91-.7,2.93,1,4.39.8-2.08-3.1-4.62-5.5-8.63-5.68-.51.35-1.25.43-1.37,1.21A39.19,39.19,0,0,0,194.93,231.41Z" transform="translate(-50.69 -50.99)"/><path class="cls-171" d="M186.5,221.91l1.37-1.21a7.85,7.85,0,0,1-3.3-3.63c-.33-.71-.82-1.83-.51-2.29,1.82-2.73-.16-3-2-3.43a8.53,8.53,0,0,0-1.24-.11c-1,.44-.72,1.63-1.28,2.34C181,217.07,183.81,219.44,186.5,221.91Z" transform="translate(-50.69 -50.99)"/><path class="cls-172" d="M179.51,213.58c1-.46,1.19-1.37,1.28-2.34-1.32-1-1.68-2.61-2.49-3.93-.56-1.65-1-3.48-3.42-2.86l-1.53,0Z" transform="translate(-50.69 -50.99)"/><path class="cls-173" d="M104.54,213.93c.19-2.17,1.41-4,2.23-5.9,2.06-4.87,4.27-9.7,4.52-15.11,1.23-4.73,1.76-9.19-3.77-11.81-2.46-1.16-4-.58-4.76,2l0,1.34a7.46,7.46,0,0,1-.25,6.1l1,1.59c2.5,2.16.12,4.15-.21,6.22a44.25,44.25,0,0,1,.41,11.38C103.5,211.2,103.23,212.76,104.54,213.93Z" transform="translate(-50.69 -50.99)"/><path class="cls-2" d="M102.76,183.13c1.18-.29,1.49-2.12,3.62-1,3.87,2,5.55,4.67,4.89,8.92a11.7,11.7,0,0,0,0,1.87c2.23-5,2.41-10.17,2-15.46-.72.41-1.46.8-2.16,1.25-1,.63-1.91.8-2.72-.24a26.73,26.73,0,0,0-2.7-3.42,53.33,53.33,0,0,0-4.78-3.44C100,176,101.08,179.59,102.76,183.13Z" transform="translate(-50.69 -50.99)"/><path class="cls-174" d="M113.6,175l2.46.09c.85-1.9.27-4,.76-5.93-.86-2-2.71-2-4.43-2.39a12.61,12.61,0,0,1-3.29-.93c-.53-.25-1.07-.47-1.62-.68-5.78-1.3-9.53-7.17-15.93-7.1l-1.38,1.18-.08.46a1.65,1.65,0,0,1,1.13,1l.11.07A4.91,4.91,0,0,0,93,161.8c4.6,2.93,9.18,5.89,13.8,8.77C109.05,172,111.72,172.87,113.6,175Z" transform="translate(-50.69 -50.99)"/><path class="cls-175" d="M91.23,181.21C92,184,94.42,186,94.71,189h0a12,12,0,0,1,1.07,1.39,5,5,0,0,1,.22,1.07l.63.58.58-.63c.86-1.59,3.12.78,3.58-1.13.25-1.07-.42-2.36-.66-3.55-.07-.4-.08-.82-.11-1.22-1.1-1.11.06-2.8-1-3.92h0l-2.46-1.45a12.58,12.58,0,0,1-.42,2.39,1,1,0,0,1-1.87.3c-.41-.68-.48-1.64-1-2.15C92.55,180,91.78,180.54,91.23,181.21Z" transform="translate(-50.69 -50.99)"/><path class="cls-176" d="M95.41,199.28l2.58,1.4c1.42-1.32,3-2.54,2.66-4.83a5,5,0,0,0-1.48-1.75,9.42,9.42,0,0,0-1.59-.26,9.66,9.66,0,0,1-3.16-.92h0c-.36-.55-.76-.59-1.21-.11C93.19,195.22,94.63,197.14,95.41,199.28Z" transform="translate(-50.69 -50.99)"/><path class="cls-177" d="M103.26,198.38c2.68-1.95,2-5.25,3.15-7.82-.35,0-.81-.19-1,0a21,21,0,0,0-1.9,1.63Z" transform="translate(-50.69 -50.99)"/><path class="cls-178" d="M102.48,190.57c1.76-2,2-4,.24-6.1Z" transform="translate(-50.69 -50.99)"/><path class="cls-175" d="M98.26,194.35l2.39,1.5A2.4,2.4,0,0,0,98.38,193a.92.92,0,0,0-.33.86C98.11,194.19,98.18,194.34,98.26,194.35Z" transform="translate(-50.69 -50.99)"/><path class="cls-2" d="M99,181.61c-.05,1.4-.37,2.88,1,3.92C100.1,184.11,100.43,182.64,99,181.61Z" transform="translate(-50.69 -50.99)"/><path class="cls-176" d="M98.26,194.35l.12-1.32-1.17-1.59-.13.32c-.92,1.36-1.17,2.47,1,2.68Z" transform="translate(-50.69 -50.99)"/><path class="cls-2" d="M93,161.8l-1.62-1.12A1.93,1.93,0,0,0,93,161.8Z" transform="translate(-50.69 -50.99)"/><path class="cls-2" d="M91.22,160.61l-1.13-1Z" transform="translate(-50.69 -50.99)"/><path class="cls-41" d="M174.88,204.45l3.42,2.86a1.41,1.41,0,0,1,1.67-.43c1.33.6,2.61,1.31,3.95,1.86a1.17,1.17,0,0,0,1.06-.4c.16-.2.05-.75-.13-1a2.23,2.23,0,0,0-.94-.8q-5.08-2.37-10.19-4.7C174.11,202.68,174.49,203.57,174.88,204.45Z" transform="translate(-50.69 -50.99)"/><path class="cls-22" d="M196.51,226.38a2.63,2.63,0,0,0,2.49,1.44A2.62,2.62,0,0,0,196.51,226.38Z" transform="translate(-50.69 -50.99)"/><path class="cls-41" d="M172.49,200.45a1.55,1.55,0,0,0,1.2,1.32Z" transform="translate(-50.69 -50.99)"/><path class="cls-22" d="M199,227.8c.36.86.78,1,1.28.1Z" transform="translate(-50.69 -50.99)"/><path class="cls-10" d="M170.93,116.68c-3.69,9.66-8.32,18.9-12.8,28.21-2.19,4.53-4.33,9.07-7.55,13a6.56,6.56,0,0,0-.22,1.07c-.3.5-.62,1-1,1.46-.27.87-.34,1.67.63,2.18,1.95-1.67,3.91-3.32,6.69-3.36,2.44-2,5.88-2,8.23-4.12.61-.89,1.85-.56,2.55-1.29h0c.48-.37.91-.79,1.41-1.13h0a5,5,0,0,1,1.41-1.18h0c.52-1,0-1.52-.77-2a3.87,3.87,0,0,0-1.66-.14,6.72,6.72,0,0,0-1.54.65l-.71.43c-.44.33-.89.66-1.36,1s-1,.52-1.48.79c-1.18.86-2.49,1.53-4,2.73,1.58-1.41,3.13-2,4.34-3.13a2.67,2.67,0,0,0,1.44-2.05,2.21,2.21,0,0,0-1.41-1.95c-.33-.14-.78.06-1.05-.05s-.12-.44.4-.63a7.08,7.08,0,0,0,2.35-1.64c2-2,3.18-4.66,5.05-6.78a16.38,16.38,0,0,0,1-1.31,16.3,16.3,0,0,1,2.8-3,3.11,3.11,0,0,0,.92-2.3c-2.38-3.26-.77-5.64,1.72-7.82a11.21,11.21,0,0,0,1.38-2.21,5.64,5.64,0,0,0,.44-1.62c.53-1.67-2-2.14-1.48-3.8.28-.37.51-.74.75-1.12s.5-.8.73-1.21c.13-.21.24-.42.37-.63.26-.43.49-.88.71-1.33a7.17,7.17,0,0,0,.54-1.49c0-.27,0-.54,0-.81a2.5,2.5,0,0,0-1-1.26,7.53,7.53,0,0,0-3.4-.68,6.8,6.8,0,0,0-1.79.32,3.77,3.77,0,0,0-1.43,1.13A11.21,11.21,0,0,0,170.93,116.68Z" transform="translate(-50.69 -50.99)"/><path class="cls-179" d="M168.87,150l1.46,1.56c2.36-.72,3.86-2.53,5.44-4.24s3.51-3.66,5.26-5.49a6.22,6.22,0,0,0,2.4-2.15c.63-.9,1.27-1.8,1.92-2.69,1.81-2.6,2.72-5.62,4-8.48.52-1.33,1-2.66,1.58-4,.57-1.64,1-3.31,1.48-5a3.27,3.27,0,0,0-.53-2.5c-.25-2.76.92-5.18,1.81-7.66a1.8,1.8,0,0,0-.11-2.51l-.05-.06c-2.1-1.72-.16-4.46-1.64-6.7a10.48,10.48,0,0,0-.48,1.87c-.21,8.55-3.64,16.32-5.95,24.35-.33,1.14-1.35,2.09-2.05,3.12-5.38,5-7.86,12.33-13.42,17.24C169.23,147.64,168.54,148.64,168.87,150Z" transform="translate(-50.69 -50.99)"/><path class="cls-180" d="M188.88,141.08c1.33-1.56,3.11-.91,4.75-1,2.41-.13,3.55-1.35,3.61-4,0-.3-1-.61-1.45-.91-2.42,1.34-5.22,1.45-7.77,2.35-.83.21-1.64.45-2.45.71a3.48,3.48,0,0,0-2.11,1.5c.06,1.78.72,2.91,2.77,2.51A2.59,2.59,0,0,1,188.88,141.08Z" transform="translate(-50.69 -50.99)"/><path class="cls-29" d="M186.23,142.2a4.29,4.29,0,0,1-2.35-2.68.69.69,0,0,0-1.17-.08A3.46,3.46,0,0,0,181,141.8c1.44.83,2.84,1.78,4.62,1.6C186.45,143.32,186.73,142.93,186.23,142.2Z" transform="translate(-50.69 -50.99)"/><path class="cls-179" d="M167.5,153.83a2.37,2.37,0,0,0-2.55,1.29A3,3,0,0,0,167.5,153.83Z" transform="translate(-50.69 -50.99)"/><path class="cls-179" d="M168.93,152.69l-1.41,1.13A1.47,1.47,0,0,0,168.93,152.69Z" transform="translate(-50.69 -50.99)"/><path class="cls-179" d="M170.32,151.52l-1.41,1.18Z" transform="translate(-50.69 -50.99)"/><path class="cls-181" d="M173.07,109.33h1.13c3.88-5.78,4.64-12.7,7-19A3.23,3.23,0,0,0,180,87.72a1.4,1.4,0,0,0-1.8.12,108.19,108.19,0,0,1-5.6,17.15c-.83-2.93-.24-4.9-.26-6.82s-.09-3.78-.08-5.67c0-.72.63-1.82-.86-1.47-.49.11-.82.89-1.22,1.37q-.47,7.65-.94,15.28a4.58,4.58,0,0,0,1,1.06A5.74,5.74,0,0,0,173.07,109.33Z" transform="translate(-50.69 -50.99)"/><path class="cls-182" d="M180.15,76.35c-1.52,1-1.54,2.42-1.3,3.92.19,1.24.51,2.46.77,3.69l.91.3c2.84-1.79,3.44-4.49,3.15-7.58C182.71,74.42,181.49,74.67,180.15,76.35Z" transform="translate(-50.69 -50.99)"/><path class="cls-183" d="M180.15,76.35c.89-.06,1.89-1.3,2.63.24a1.49,1.49,0,0,0,1.74-.09c1.52-2.68,4.1-5,2.7-8.63-.46-.57-1-.67-1.41,0-1,1.53-1.86,3.1-2.82,4.64-.41.65-.92.62-1.42.07C180.13,73.46,180.27,75,180.15,76.35Z" transform="translate(-50.69 -50.99)"/><path class="cls-182" d="M178.18,87.84c.4,0,.81,0,1.21,0a2.32,2.32,0,0,0,1-1.09,4.27,4.27,0,0,0,.13-1.47,2.62,2.62,0,0,0-.79-1.22l-.07-.07c-.41,0-.82,0-1.23,0h0Z" transform="translate(-50.69 -50.99)"/><path class="cls-182" d="M178.39,83.94c-.08-.18-.19-.52-.25-.51-.42.06-.33.26.25.51Z" transform="translate(-50.69 -50.99)"/><path class="cls-5" d="M125.49,85.53a4,4,0,0,0-1,0c0,.79-.06,1.58,0,2.36a.82.82,0,0,0,.31.45c.25-.13.66-.29.69-.48C125.49,87.1,125.47,86.31,125.49,85.53Z" transform="translate(-50.69 -50.99)"/><path class="cls-184" d="M109.92,252.93c-.42-.48-.83-1-1.25-1.46-2.14,1.71-5,2.33-6.74,4.66,1.42,1,1.18,2.46,1.08,3.87l0,.45a7.35,7.35,0,0,0,4.53,1.08,16,16,0,0,0,4.53-1.4c1-.82,1.93-1.71,1.33-3.2-2.22.29-4.43.6-6.66.85a1.43,1.43,0,0,1-1.11-.38,1.1,1.1,0,0,1,.32-1.56C107.28,254.83,108.61,253.9,109.92,252.93Z" transform="translate(-50.69 -50.99)"/><path class="cls-185" d="M113.45,256.93c-.47.84-.93,1.68-1.39,2.53a2.9,2.9,0,0,0,2.51,1c1.64-.55,3.94-.26,3.9-3-1.06-1.68.52-2,1.38-2.73.48-1.08.2-1.58-1-1.33C116.9,254.36,114.67,254.89,113.45,256.93Z" transform="translate(-50.69 -50.99)"/><path class="cls-186" d="M118.82,253.36c.34.45.69.89,1,1.33,2.15-1.18,4.28-2.4,6.47-3.51a19.73,19.73,0,0,1,2.87-1c-.43-.76-1.26-1.54-1.92-1.15C124.54,250.68,120.89,250.5,118.82,253.36Z" transform="translate(-50.69 -50.99)"/><path class="cls-187" d="M142.7,261.46l12.84.75c1.44-1.79,3.47-.75,5.21-1.1a4.48,4.48,0,0,0-3.45-1.33c-3.83-.24-7.66-.42-11.47-.74-1.37-.12-2.9.34-4.11-.72.74-2.29,3.51-1.14,4.8-3.26-3.69-.12-7.11-.7-10,2-.76,1.82-2.72,1.37-4,2.14a1.8,1.8,0,0,0-.19,1.58,1.15,1.15,0,0,0,1.5.06C136.76,261.26,139.81,260.12,142.7,261.46Z" transform="translate(-50.69 -50.99)"/><path class="cls-188" d="M142,252.36c-.47-.75-1.16-1.4-2-1.2-3.84.89-7.78,1.55-11,4.13a2,2,0,0,0,.63,1.33l.72.25a15.69,15.69,0,0,1,6.25-2.85C138.4,253.62,140.17,252.92,142,252.36Z" transform="translate(-50.69 -50.99)"/><path class="cls-189" d="M132.63,259.52c1.05,0,2.1.12,3.14,0,1.56-.12,1.63-.42.78-2.47-2.13.18-4.12,1.59-6.36.67l-.51.67a1.64,1.64,0,0,0,.64,1.44A2,2,0,0,0,132.63,259.52Z" transform="translate(-50.69 -50.99)"/><path class="cls-188" d="M130.19,257.76a4.43,4.43,0,0,1,.12-.89l-.28-.22c-.65-.14-1.27.09-1.24.73s.67.85,1.31.75Z" transform="translate(-50.69 -50.99)"/><path class="cls-190" d="M162.75,108.61a10.7,10.7,0,0,0,.83,6.48,7.9,7.9,0,0,0,2-1.47c.74-1,1.31-2.17-.56-3C164.15,110.28,163.51,109.31,162.75,108.61Z" transform="translate(-50.69 -50.99)"/><path class="cls-190" d="M167.2,119.22c1.76-1.29,1.38-3.27,1.62-5.06C166,115.88,166,115.88,167.2,119.22Z" transform="translate(-50.69 -50.99)"/><path class="cls-190" d="M170.4,107.82a9.27,9.27,0,0,1-1.18-.14l-.42,6.51a6.05,6.05,0,0,0,1.13-.18C171.93,112.09,171.83,110,170.4,107.82Z" transform="translate(-50.69 -50.99)"/><path class="cls-190" d="M164.48,121.55a2.37,2.37,0,0,0,1,2.53c.61-1.15,1.44-2.21,1.34-3.62Z" transform="translate(-50.69 -50.99)"/><path class="cls-190" d="M163.5,117.67a2.62,2.62,0,0,0,1,2.68A2.68,2.68,0,0,0,163.5,117.67Z" transform="translate(-50.69 -50.99)"/><path class="cls-191" d="M175.74,123.5c-1.29,1.08-2.67,2.07-3.85,3.25-2.09,2.11-1.87,2.91.93,4.5a8.4,8.4,0,0,1,1.37,1.24c2.13,2,3.69-1.57,5.72-.58,2.59-.83,2.06-3.69,3.46-5.29.73-2,1.51-4,2.19-6,.61-1.8,1.62-3.66,1.57-5.47-.18-6.7,2.31-12.85,3.76-19.19.49-2.16.85-4,.2-6.13a9.32,9.32,0,0,1-.07-2.54c-.63-.64-1-.37-1.47.28C188,89.86,188,93,185.48,94.68a8.76,8.76,0,0,0-4,4.67c-.9,2.53,1.95,5.46-.83,7.8a6,6,0,0,0-.74,1.5,3.87,3.87,0,0,1-.51,2.37l-.24-.1a3.08,3.08,0,0,0-.63,1.28,2.92,2.92,0,0,1-.63,1.27l-.07.08a2.91,2.91,0,0,0-1.11,1.12l-.54,1.21c2.23,1.85,4,.21,5.77-.75-.72-.47.46.49.52-.33,0-.64.69-.37.47-.18-1.85,1.66-1.91,4.65-4.38,5.78a2.3,2.3,0,0,0-1.27.68h0C176.55,121.74,176.71,123,175.74,123.5Z" transform="translate(-50.69 -50.99)"/><path class="cls-192" d="M183.37,126.62l-4.1,4.9a16.55,16.55,0,0,0-7.55,7.73c-.07,2.38-1.71,3.83-3.21,5.38-.67,1-1.3,2-.51,3.19a1.94,1.94,0,0,0,2.47-.21c4-2.84,6.76-6.82,9.4-10.82a56.71,56.71,0,0,0,3.52-7.37C183.39,128.49,183.38,127.55,183.37,126.62Z" transform="translate(-50.69 -50.99)"/><path class="cls-193" d="M108,260.38l-4.94.06c.57,1.85,2.67,2.21,3.6,3.71,2.3,2.65,5.88,2.84,8.69,4.5l0,0c4.22.8,8.09,3.63,12.7,2.15,0-.42,0-.84.05-1.26-2-3.38-6-3.35-8.82-5.33-1-.62-1.93-1.28-2.87-1.95a13,13,0,0,0-1.45-1l-.81-.37A8.15,8.15,0,0,0,108,260.38Z" transform="translate(-50.69 -50.99)"/><path class="cls-194" d="M115.35,268.65c-2.2-2.84-5.72-3.14-8.69-4.5a4.13,4.13,0,0,0-1.2.28c-.41.26-.39.74,0,.87C108.77,266.4,111.5,269.19,115.35,268.65Z" transform="translate(-50.69 -50.99)"/><path class="cls-194" d="M128,270.77c-2.44-.28-4.87-.34-7.24-1.34-1.64-.7-3.63-.57-5.46-.8a2.87,2.87,0,0,0,2.46,1.44,3.22,3.22,0,0,1,2.52,1.41l4.33.34A3.63,3.63,0,0,0,128,270.77Z" transform="translate(-50.69 -50.99)"/><path class="cls-184" d="M115.73,263.5l2.39,1.45c.65.68,2.15.75,2.11.38-.5-5.25,2.83-3.23,5.27-2.9s5,.43,7-1.69c0-.41.09-.82.14-1.22l-2.67-.25c-1.12-.92-2.46-1.54-3.52-2.54-2.59,1-5.28.76-8,.69-.89,1.46-3.07.68-3.89,2.24a1.66,1.66,0,0,0-.12,2.51h0A11.5,11.5,0,0,0,115.73,263.5Z" transform="translate(-50.69 -50.99)"/><path class="cls-195" d="M126.44,256.73c0,2.54,1.82,2.43,3.52,2.54a8.87,8.87,0,0,0,.14-1.14c-.72-.46-.87-.94-.07-1.48L129,255.29Z" transform="translate(-50.69 -50.99)"/><path class="cls-196" d="M101.53,122.68A2.66,2.66,0,0,1,98.88,125a2.6,2.6,0,0,0-1.26,3c.22,1.15.49,2.3.74,3.46,0,.27,0,.55,0,.83a4.41,4.41,0,0,0,.55,1.56A3.65,3.65,0,0,0,101,135.2a3.3,3.3,0,0,0,2.4-.54,4.92,4.92,0,0,0,.45-3.22,28,28,0,0,1,0-3,5.14,5.14,0,0,1,.4-1.94,3.18,3.18,0,0,1,.89-.9c0-.44.08-.89.11-1.33-.4,0-.8-.1-1.21-.13a7.56,7.56,0,0,1-1.26-1.33C102.34,122.72,101.94,122.69,101.53,122.68Z" transform="translate(-50.69 -50.99)"/><path class="cls-37" d="M102.75,122.77,104,124.1Z" transform="translate(-50.69 -50.99)"/><path class="cls-197" d="M88.26,150c-.91.54-.8,1.21-.26,2l2.41,3.39a50.7,50.7,0,0,0,19.89,10.83c2.1.62,4.08,1.41,5.67-.88,0-5.2-3.69-7.62-7.48-10A58.35,58.35,0,0,1,93,150.1C91.42,149.64,89.86,148.87,88.26,150Z" transform="translate(-50.69 -50.99)"/><path class="cls-198" d="M115.6,164.65c-1,1.22-2.14,1-3.44.68-7.17-2.05-14.11-4.55-20-9.43a5.21,5.21,0,0,0-1.8-.56L91.55,158c4.45,2.58,8.87,5.2,13.35,7.73a14.57,14.57,0,0,0,2.92.89c.46-.4.83-.32,1.1.23a2.68,2.68,0,0,0,2.65,1.31c1.41-.83,2.91-.24,4.37-.26,1.13,0,2.25-.19,2-1.68A1.88,1.88,0,0,0,115.6,164.65Z" transform="translate(-50.69 -50.99)"/><path class="cls-152" d="M88.26,150,92,151.48c.84-.75,2.61.11,2.88-1.65-3.89-4.77-9.25-7.09-14.91-8.9a3.21,3.21,0,0,0-1.66.86,10.94,10.94,0,0,0,6.61,5.5A5.21,5.21,0,0,1,88.26,150Z" transform="translate(-50.69 -50.99)"/><path class="cls-199" d="M78.35,141.79l1.47,0c-.15-3.18-2.45-4.32-5-5.27-1,0-2.29,0-1.38,1.59.71,1.24,1.63,2.36,2.45,3.53Z" transform="translate(-50.69 -50.99)"/><path class="cls-19" d="M193.56,106.84c0,.83.07,1.67.11,2.51a39.83,39.83,0,0,0,3.18-2.74,1.11,1.11,0,0,0-.35-1.94l-1.29,1.11Z" transform="translate(-50.69 -50.99)"/><path class="cls-200" d="M194.28,118.45,193,117l-1.15,0c-.18.71-.35,1.42-.53,2.13-.21,3.37,1.52,1.52,2.75,1A1.72,1.72,0,0,0,194.28,118.45Z" transform="translate(-50.69 -50.99)"/><path class="cls-8" d="M58.29,95.56,57.07,94.2Z" transform="translate(-50.69 -50.99)"/><path class="cls-8" d="M57.08,94.21l-1.18-1.4Z" transform="translate(-50.69 -50.99)"/><path class="cls-8" d="M55.83,91.7a1.33,1.33,0,0,0-1.15,1.07c.42,0,.83,0,1.24,0A5.06,5.06,0,0,0,55.83,91.7Z" transform="translate(-50.69 -50.99)"/><path class="cls-155" d="M69.11,106.59,68,105.2Z" transform="translate(-50.69 -50.99)"/><path class="cls-40" d="M132.49,260.74c-3.07-.13-6.1.94-9.24-.42-1.61-.7-3.71-.32-5.59-.35-.26,0-.57.46-.78.76-.07.1.05.43.18.55a14.79,14.79,0,0,1,2.32,2c1.18,1.65-.33,1.47-1.26,1.63,2.86,2.51,6.55,3.19,9.94,4.56l.06-.05c.68-.85,2-.21,2.66-1.17.25-1.43,1-2.54,2.53-2.22,3.78.78,7.56.15,11.53.56-.56-2-2-1.12-2.94-1.43-3-1-6.43-.95-8.09-4.33Z" transform="translate(-50.69 -50.99)"/><path class="cls-201" d="M130.78,268.29c-1.05,0-2.06.13-2.66,1.17l5,.31a3.17,3.17,0,0,0,2.76-1.09l-2.51-.24a.91.91,0,0,0-1.33-.06C131.59,268.37,131.19,268.34,130.78,268.29Z" transform="translate(-50.69 -50.99)"/><path class="cls-40" d="M132,268.38l1.33.06C132.91,267.74,132.47,267.72,132,268.38Z" transform="translate(-50.69 -50.99)"/><path class="cls-202" d="M206.27,130.67l1.34,0c.15-2.73,2.5-4.69,2.53-7.54,0-1.2,1.29-2,2.26-2.85.4-.34.82-1.24.65-1.58-.64-1.22-1.2.12-1.83.19-1.42.14-2.87.12-4.3.17l-.82.15a3.82,3.82,0,0,0-2.34,3.11,13.23,13.23,0,0,0,.39,1.44c-1,2.6-4,2.28-5.59,4a6.22,6.22,0,0,0-1.24,1.27,3.08,3.08,0,0,0-.45,1.7c.68,1.32,1.63,1.63,2.89.78l1.28.07C203.06,132.84,204.51,130.85,206.27,130.67Z" transform="translate(-50.69 -50.99)"/><path class="cls-203" d="M199.76,131.52a2.74,2.74,0,0,1-2.5-1.45c-2.1-2.47-5.18-.06-7.48-1.51a6.53,6.53,0,0,0-1.55-.56q-2.11,4.45-4.21,8.93c3.61,1.92,6.43.32,9.08-2a4.14,4.14,0,0,1,4-2.27A3,3,0,0,0,199.76,131.52Z" transform="translate(-50.69 -50.99)"/><path class="cls-204" d="M193.1,134.89a39.51,39.51,0,0,0-4.19,1.22,10.07,10.07,0,0,1-4.89.82,2.91,2.91,0,0,0-1.32,2.51l.59,0,.59.06,2.54.08a7.92,7.92,0,0,1,1.43-1c3.16,0,5.92-.85,7.94-3.45Z" transform="translate(-50.69 -50.99)"/><path class="cls-203" d="M206.27,130.67c-.39-.75-1.24-1.47-1.77-.81-.95,1.2-2.57.67-3.46,1.73,0,1.09,0,2.09,1.53,2,.28,0,.58.49.88.75l1.29.08C204.69,132.92,205.65,131.87,206.27,130.67Z" transform="translate(-50.69 -50.99)"/><path class="cls-205" d="M180.59,89.18a67.1,67.1,0,0,0-6.39,20.16l1.3.09a10.93,10.93,0,0,0,3.8-3.29,5.92,5.92,0,0,0,1.35-4c-.55-3.3,1.85-5.89,2.2-9a9,9,0,0,1,.22-1.15c.79-1.53,1.42-3.15-.53-4.19C181.46,87.23,180.6,87.81,180.59,89.18Z" transform="translate(-50.69 -50.99)"/><path class="cls-206" d="M182.85,93.14c-1.89,1.68-2.83,4-3.89,6.18-.52,1.07,0,2,.89,2.68l.64-.07a1.87,1.87,0,0,0,1-.75,6.49,6.49,0,0,1,1-1.59c.93-1.67,2.76-2.81,3-4.91-.25-.57-.61-1-1.3-.77S183.14,93.66,182.85,93.14Z" transform="translate(-50.69 -50.99)"/><path class="cls-207" d="M180.59,89.18c1-1,2-1.26,2.44.5a11.1,11.1,0,0,1,0,2.31c1-.6,1.11-1.71,1.61-2.6.93-1.62,1-3.7,2.55-5a1.92,1.92,0,0,0,.9-1.4,3.09,3.09,0,0,0,0-1.73,1.77,1.77,0,0,0-2.24-.87c-2.37,1.73-3.35,4.85-6.17,6.11-.1.43-.19.86-.28,1.29Z" transform="translate(-50.69 -50.99)"/><path class="cls-208" d="M187.65,82a5.92,5.92,0,0,0-.07,1.26c.35.61.71.65,1.1,0,3.37-3,3.55-7.31,4.58-11.27L192,72a5.07,5.07,0,0,0-2.41,2.53C188.27,76.82,188,79.41,187.65,82Z" transform="translate(-50.69 -50.99)"/><path class="cls-209" d="M188.68,83.31l-1.1,0a4.44,4.44,0,0,0-.35,1.14C188.43,85.27,188.43,85.27,188.68,83.31Z" transform="translate(-50.69 -50.99)"/><path class="cls-210" d="M194.09,119.59c-1,.26-2.07,1.13-2.76-.45-1.44,1.5-1.24,3.51-1.65,5.32,3.58,1.61,7,.53,10.37-.7,2.46-1.34,4.42-3.41,6.92-4.69l-.05,0a6.39,6.39,0,0,1,2.75-2.37,22.26,22.26,0,0,0,7-6l-1.49-.19a1.65,1.65,0,0,0-1.42-.56,13.11,13.11,0,0,0-2.36.72c-.26.11-.52.23-.78.33s-.5.27-.76.39C205.3,115.51,199.54,117.25,194.09,119.59Z" transform="translate(-50.69 -50.99)"/><path class="cls-162" d="M74.85,136.5c.93,2.44,3.37,3.46,5,5.27l15,8.53a8.28,8.28,0,0,0,8.91,2.86c1.42-.79,1.39-2,.86-3.26-1.46-2.52-3.68-4.44-5.47-6.71-.34-.44-.73-.85-1.11-1.26-.76-.83-1.53-1.65-2.35-2.42a4.67,4.67,0,0,0-2.28-1.07c-3.79.94-7-2.18-10.67-1.68l-5.09-1.49A2.89,2.89,0,0,0,74.85,136.5Z" transform="translate(-50.69 -50.99)"/><path class="cls-30" d="M190.61,74.49A2.85,2.85,0,0,0,192,72c.07-.41.12-.83.21-1.24.66-3,.66-3-2.78-4.08l-1.13,1.18c-.48,1.19-.11,2.61-1,3.67C186.93,74.11,188.18,75,190.61,74.49Z" transform="translate(-50.69 -50.99)"/><path class="cls-30" d="M191.2,64.21l-1.26-.08a6.77,6.77,0,0,0-.14,1.27Z" transform="translate(-50.69 -50.99)"/><path class="cls-211" d="M212.5,111.75l1.41-1.11a7.57,7.57,0,0,0,1.37-1.28c2.14-2.59,4.33-5.14,6.39-7.79.57-.73.15-1.59-.6-2.16-1.15-.85-2.26-.24-3.37.08a5.63,5.63,0,0,0-1.43,1,49.65,49.65,0,0,1-3.46,3.79,14.19,14.19,0,0,0-1.13,1.33c-.88,1.36-2.23,2.45-2.74,4-.71,2.21.07,3.11,2.37,2.09l0,0A.73.73,0,0,1,212.5,111.75Z" transform="translate(-50.69 -50.99)"/><path class="cls-212" d="M217.21,100.57c1.44.11,2.61-.66,3.86-1.16l6.69-4.78c-4.48.1-8.26,2.09-11.89,4.47A1.63,1.63,0,0,0,217.21,100.57Z" transform="translate(-50.69 -50.99)"/><path class="cls-213" d="M215.28,109.36l-1.37,1.28c.43,0,.85,0,1.27,0C215.22,110.18,215.26,109.77,215.28,109.36Z" transform="translate(-50.69 -50.99)"/><path class="cls-214" d="M115,133.94c-.15-1.85-.18-3.65-1.46-5.29-1-1.23-1.66-2.08-3.47-1.77a23.69,23.69,0,0,1-5-.17c-1,2.08.46,3.18,1.72,4.36a6.3,6.3,0,0,1,3.54,3.91c.94,1.07,1.87,2.17,3.45,1,.36-.72.36-1.65,1.2-2.09Z" transform="translate(-50.69 -50.99)"/><path class="cls-215" d="M107.37,130.74l-2.28-4c0-.38,0-.77,0-1.15a9.21,9.21,0,0,1-1,0,7.65,7.65,0,0,0-1.55,1.1c-.11,1.7-.21,3.4-.32,5.1C104.2,132.87,106.25,134.23,107.37,130.74Z" transform="translate(-50.69 -50.99)"/><path class="cls-216" d="M115.08,125a1.38,1.38,0,0,1,2-.65c.72.37,1.42.78,2.13,1.17l.15-1.32c-.47-.52-.95-1-1.42-1.54s-.81-1.1-1.22-1.64l-1.65.81C113.24,122.71,113.52,123.46,115.08,125Z" transform="translate(-50.69 -50.99)"/><path class="cls-108" d="M132.57,96.45c1.41-.72,1.59-1.57.25-2.56C132.74,94.74,132.65,95.6,132.57,96.45Z" transform="translate(-50.69 -50.99)"/><path class="cls-76" d="M155.31,187.8a2.49,2.49,0,0,0-2.47-1.43A2.88,2.88,0,0,0,155.31,187.8Z" transform="translate(-50.69 -50.99)"/><path class="cls-76" d="M156.54,188.87l-1.22-1.06A1.35,1.35,0,0,0,156.54,188.87Z" transform="translate(-50.69 -50.99)"/><path class="cls-217" d="M141,181.82l-2.1-.35-1.15,1.35C139.49,184.16,139.56,184.14,141,181.82Z" transform="translate(-50.69 -50.99)"/><path class="cls-55" d="M98.08,194.44a3.14,3.14,0,0,1-1-2.68L96,191.48l-1.58,1.44C96,195.53,96.14,195.61,98.08,194.44Z" transform="translate(-50.69 -50.99)"/><path class="cls-55" d="M93.21,192.8l1.21.11a3.1,3.1,0,0,0-.46-1c-.36-.35-1.15-.86-1.26-.76C91.85,191.91,92.58,192.36,93.21,192.8Z" transform="translate(-50.69 -50.99)"/><path class="cls-55" d="M95.78,190.41,94.71,189Z" transform="translate(-50.69 -50.99)"/><path class="cls-141" d="M149.4,160.42l1-1.45Z" transform="translate(-50.69 -50.99)"/><path class="cls-99" d="M197.43,186.68h-1.37a4.35,4.35,0,0,1,.17,1.08,10.68,10.68,0,0,1,1.11.18A5.23,5.23,0,0,0,197.43,186.68Z" transform="translate(-50.69 -50.99)"/><path class="cls-218" d="M199.94,190.66a4,4,0,0,0,1.26,3.55c1.49-2.1,1.5-2.58,0-4.82h0C200.83,189.85,200.31,190.17,199.94,190.66Z" transform="translate(-50.69 -50.99)"/><path class="cls-219" d="M204.61,157.57c-.07,1.22-.15,2.45-.22,3.67,2.13.18,3.82-1.07,5.7-1.73.1,0,.17-.37.14-.55s-.15-.5-.28-.52C208.17,158.13,206.39,157.85,204.61,157.57Z" transform="translate(-50.69 -50.99)"/><path class="cls-220" d="M188.16,71.72a3.37,3.37,0,0,0,.14-3.9l-1.08.05c-.62,3.08-3.3,5.39-3.23,8.72-1.51,2.88-1,6.75-4.24,8.78a3.42,3.42,0,0,0-.08,1.15c2.6.4,4.5-.33,5.28-3.12a16.13,16.13,0,0,1,1.36-2.81C188.31,77.93,186.45,74.45,188.16,71.72Z" transform="translate(-50.69 -50.99)"/><path class="cls-221" d="M135.8,90c-.79.17-1.66.18-2.15,1-.09.15-.13.52-.05.57.3.22.73.55,1,.47.89-.3,1-1.2,1.26-2Z" transform="translate(-50.69 -50.99)"/><path class="cls-83" d="M216.48,190.26c.09-.82.19-1.65.29-2.47l-1.3,0A2.51,2.51,0,0,0,216.48,190.26Z" transform="translate(-50.69 -50.99)"/><path class="cls-222" d="M198.83,186.65c.24.67.52,1.12,1.1.24A4.16,4.16,0,0,0,198.83,186.65Z" transform="translate(-50.69 -50.99)"/><path class="cls-73" d="M130.86,188.63l-.15,1.52a5.3,5.3,0,0,0,.49-1C131.24,189,131,188.8,130.86,188.63Z" transform="translate(-50.69 -50.99)"/><path class="cls-62" d="M199.94,190.66l1.28-1.27Z" transform="translate(-50.69 -50.99)"/><path class="cls-223" d="M122.86,111.22a1.09,1.09,0,0,0-.08,1.21c.52-.12.72-.39.51-.78C123.2,111.47,123,111.36,122.86,111.22Z" transform="translate(-50.69 -50.99)"/><path class="cls-115" d="M122,203.61l-1,1.14Z" transform="translate(-50.69 -50.99)"/><path class="cls-115" d="M123.28,202.06,122,203.57A2,2,0,0,0,123.28,202.06Z" transform="translate(-50.69 -50.99)"/><path class="cls-224" d="M118.73,209.42a.47.47,0,0,0-.5-.55l.09.43Z" transform="translate(-50.69 -50.99)"/><path class="cls-225" d="M112.52,215.15a.82.82,0,0,0,.45.51v-.48Z" transform="translate(-50.69 -50.99)"/><path class="cls-226" d="M129,174.82a2.86,2.86,0,0,0-1.12-.51,3.28,3.28,0,0,0-2.06.85,4.3,4.3,0,0,0-1.3,1.92,5.55,5.55,0,0,1-.88,2.23,6,6,0,0,0,3.48,3.13,2.44,2.44,0,0,1,.28-.69.75.75,0,0,0,0-1.1l2.7-2.27C128.59,177.52,128.85,176.14,129,174.82Z" transform="translate(-50.69 -50.99)"/><path class="cls-227" d="M127.33,180.65c0,.37,0,.74,0,1.1.53,0,.69-.25.42-.69A1.91,1.91,0,0,0,127.33,180.65Z" transform="translate(-50.69 -50.99)"/><path class="cls-228" d="M125.88,134.57l.39,1.3,1.37.06C127.05,135.48,126.46,135,125.88,134.57Z" transform="translate(-50.69 -50.99)"/><path class="cls-152" d="M92.08,128.56a2.59,2.59,0,0,0,1.2,2.58A2.61,2.61,0,0,0,92.08,128.56Z" transform="translate(-50.69 -50.99)"/><path class="cls-152" d="M91,125.89a2.59,2.59,0,0,0,1.08,2.65A2.63,2.63,0,0,0,91,125.89Z" transform="translate(-50.69 -50.99)"/><path class="cls-152" d="M93.27,131.13l1,1.45Z" transform="translate(-50.69 -50.99)"/><path class="cls-229" d="M95.21,140.33A4.13,4.13,0,0,0,97.67,143h0a26,26,0,0,0,5.76,7c.84-.05,1.69,0,2.54-.09a5.47,5.47,0,0,0,3.6-2.32,4.21,4.21,0,0,0,.35-2.61,2.63,2.63,0,0,0-1.65-1.85,5.32,5.32,0,0,0-2.41.31c-4-1.79-2.12-6.88-5.19-9.16l-1.25-1.34a14.55,14.55,0,0,0-1.06-1.42v0A3,3,0,0,0,97,134a2.86,2.86,0,0,1-1.46,2.44c0,.45-.09.9-.14,1.35,0,.21,0,.43,0,.65s0,.43,0,.64l-.06.65C95.25,139.9,95.23,140.12,95.21,140.33Z" transform="translate(-50.69 -50.99)"/><path class="cls-161" d="M93.94,139.05l1.27,1.28.07-.54a.76.76,0,0,0,.6-.95,2.09,2.09,0,0,0-.52-1.1h0c-.42-.05-.83-.09-1.25-.1h0c-.46.26-.64.56-.53.89S93.81,139,93.94,139.05Z" transform="translate(-50.69 -50.99)"/><path class="cls-230" d="M93.94,139.05c.06-.47.11-.94.17-1.41l-1.46-.14c-1.34-.14-2.73-.13-3.66-1.35l-3.7-.39c-1,.07-1.94.06-2.54,1C86.27,138.54,89.72,140.69,93.94,139.05Z" transform="translate(-50.69 -50.99)"/><path class="cls-231" d="M170.4,107.82c-.16,2.07-.31,4.13-.47,6.2.09,1,.1,2,1,2.66a20,20,0,0,0,2.14-7.35A2.83,2.83,0,0,0,170.4,107.82Z" transform="translate(-50.69 -50.99)"/><path class="cls-232" d="M123.59,179.31c2.16-.31,2.16-.31,1.52-2.52-1.41-6.19-3-7.51-8.54-7-2.78.92-2.78.92-1.64,3.08l1.13,2.14h0c2,1.23,4.52,1.33,6.13,3.22Z" transform="translate(-50.69 -50.99)"/><path class="cls-174" d="M122.22,178.27c-1.32-2.46-3.5-3.27-6.13-3.22C117.91,176.54,119.72,178.07,122.22,178.27Z" transform="translate(-50.69 -50.99)"/><path class="cls-233" d="M116.57,169.82c2.28-.25,3.93.92,5.27,2.54,1.17,1.42,2.19,2.95,3.27,4.43l1.28-1.23c-.87-6-5.73-10-7.8-15.35a6.38,6.38,0,0,0-1.21-1.17,8.84,8.84,0,0,1-3.14-2.42c-1.32-1.78-2-4-3.9-5.38-1.81-.87-3.86-1.23-5.41-2.62l-1.5,1.35c.44.83.88,1.66,1.33,2.48,0,.28,0,.55.07.82a4.51,4.51,0,0,0,.86,1.38,25,25,0,0,1,2.62,1.87c3.06,2.14,5,5.25,7.29,8.13a4.47,4.47,0,0,1,.93.79c.45.67,1,1.51-.37,1.76-1.54.28-3.33-.64-4.59,1C113.29,168.54,115.24,168.25,116.57,169.82Z" transform="translate(-50.69 -50.99)"/><path class="cls-233" d="M108.92,166.86c.46-.24.66-.68.33-.86-.64-.35-1.12,0-1.44.63C108.18,166.72,108.55,166.79,108.92,166.86Z" transform="translate(-50.69 -50.99)"/><path class="cls-234" d="M169.47,145a34,34,0,0,0,3.19-2.52c.86-.86.5-1.77-.41-2.46-2.74.82-1.19-2.15-2.38-2.7-3.22,1.4-3.81,4.84-5.64,7.31-.57,1,0,1.5.78,1.94C166.9,147.21,167.84,145.14,169.47,145Z" transform="translate(-50.69 -50.99)"/><path class="cls-235" d="M169.87,137.32c0,.39,0,.77,0,1.16.06,2,.06,2,2.4,1.54l7-8.5c-.14-1,0-2.44-1.63-1.37-1.15.78-1.66,2.48-3.45,2.34l-1.42,1.35c-1.26.92-1.82,2.41-2.9,3.48Z" transform="translate(-50.69 -50.99)"/><path class="cls-236" d="M181.67,113.67c-1.88.59-3.17,2.65-5.48,2.21a4.82,4.82,0,0,0-2.88,3.05c3.26,0,3.26,0,4,2.15.41,0,.82,0,1.23,0C180.52,119,182.9,117.11,181.67,113.67Z" transform="translate(-50.69 -50.99)"/><path class="cls-237" d="M162.65,151.11a2,2,0,0,0-.6.2c-2.24,1.49-4.48,3-7,4.67,3.68.12,4.76-.32,8.89-3.43C164,151.68,163.2,151.49,162.65,151.11Z" transform="translate(-50.69 -50.99)"/><path class="cls-238" d="M162.65,151.11l1.33,1.44c.36-.06.72-.11,1.09-.15a16.17,16.17,0,0,1,1.36-1.12l0,0a4.49,4.49,0,0,1,1.3-1,7.1,7.1,0,0,1,1.09-.24l1.6-2.36-2.59-.15c-2.35-1-3,.88-3.9,2.35Z" transform="translate(-50.69 -50.99)"/><path class="cls-181" d="M178.28,105.75c-1.44.84-1.94,2.38-2.78,3.68l3.91.26a.66.66,0,0,0,1.16,0,7.86,7.86,0,0,1,.25-1.17C182.34,105.42,180.4,105.51,178.28,105.75Z" transform="translate(-50.69 -50.99)"/><path class="cls-239" d="M165.45,146l-1.22-1.37-5.81,4.17c1.89,1.28,3-.16,4.32-.41C163.62,147.57,166.14,148.6,165.45,146Z" transform="translate(-50.69 -50.99)"/><path class="cls-240" d="M165.45,146l-2.71,2.39,1.24,1.42,3.9-2.35,1.59-2.46a1,1,0,0,0-1.46-.46C167.14,145,166.3,145.51,165.45,146Z" transform="translate(-50.69 -50.99)"/><path class="cls-234" d="M169.87,137.32a4.14,4.14,0,0,0,2.9-3.48A3.44,3.44,0,0,0,169.87,137.32Z" transform="translate(-50.69 -50.99)"/><path class="cls-236" d="M175.74,123.5a2.29,2.29,0,0,0,1.55-2.41A3.09,3.09,0,0,0,175.74,123.5Z" transform="translate(-50.69 -50.99)"/><path class="cls-179" d="M166.43,151.28l-1.36,1.12Z" transform="translate(-50.69 -50.99)"/><path class="cls-179" d="M167.78,150.21l-1.3,1Z" transform="translate(-50.69 -50.99)"/><path class="cls-181" d="M179.08,112.09a5.77,5.77,0,0,0,.09-1.17L178,112.33A.74.74,0,0,0,179.08,112.09Z" transform="translate(-50.69 -50.99)"/><path class="cls-236" d="M180.57,109.68a11.25,11.25,0,0,1-1.16,0V111C179.79,110.57,180.18,110.12,180.57,109.68Z" transform="translate(-50.69 -50.99)"/><path class="cls-236" d="M176.73,114.67l1.11-1.12A1.29,1.29,0,0,0,176.73,114.67Z" transform="translate(-50.69 -50.99)"/><path class="cls-236" d="M179.08,112.09l-1.07.24a3.94,3.94,0,0,0-.1,1.14Z" transform="translate(-50.69 -50.99)"/><path class="cls-241" d="M200.33,122.56c-3.47,1.06-7.24.5-10.65,1.9-1.24.87-1.26,2.24-1.45,3.54l.35.44c6.64,1.24,12.5.09,16.9-5.52l-1.36-.16C202.91,121.59,201.64,121.74,200.33,122.56Z" transform="translate(-50.69 -50.99)"/><path class="cls-29" d="M187.85,138.58l-1.43,1Z" transform="translate(-50.69 -50.99)"/><path class="cls-207" d="M179.75,85.37c2.59-.31,3.34-2.34,3.84-4.39a28.89,28.89,0,0,0,.4-4.39,8.15,8.15,0,0,0-1.21,0A13.71,13.71,0,0,1,179.69,84Z" transform="translate(-50.69 -50.99)"/><path class="cls-40" d="M114.47,262.17l.12-2.51-2.53-.2c-1.42,0-2.93-.38-4.06.92A12.78,12.78,0,0,1,114.47,262.17Z" transform="translate(-50.69 -50.99)"/><path class="cls-242" d="M181.67,113.67c-1,2.48-2.09,5-3.14,7.45a9.11,9.11,0,0,0,.67,1.61,1.23,1.23,0,0,0,1-.25q2.66-4.94,5.17-9.94a1,1,0,0,0-.49-1.49,1.41,1.41,0,0,0-1.09.38C183,112.13,182.38,112.92,181.67,113.67Z" transform="translate(-50.69 -50.99)"/><path class="cls-236" d="M178.28,105.75c.29.28.62.83.86.8,1.66-.23,1.53,1,1.68,2,1.88-.72,2.63-2.45,3.48-4,.46-.88,0-1.36-.94-1.72-1.6-.62-.7-2.06-.86-3.16L181.05,101c-.43.35-.84.71-1.25,1.07l0,0C179.92,103.5,178.88,104.53,178.28,105.75Z" transform="translate(-50.69 -50.99)"/><path class="cls-40" d="M115.73,263.5l-1.27-1.34Z" transform="translate(-50.69 -50.99)"/><path class="cls-243" d="M100.67,134.25a27.64,27.64,0,0,0,3.15,11.48c.4.72,1,1.54,1.94.77.41-.34.49-1.09.73-1.65-.56-2.74.44-5.78-1.7-8.31,2,2,.86,5.27,3,7.11L109,145c3.25-.58,4.67.87,4.53,4.07.86,3.62,1,7.49,3.63,10.51l.21-.13c1.67.77,1.57,4.22,4.56,3,1.75-.72,2.72-1.8,1.75-3.78h0c-1.25-.62-.72-1.8-.88-2.76l0,.07c-1.69-.81-.21-2.77-1.37-3.77-.63-4.75-3.49-8.62-5.07-13-.51-1.4-1.07-2.77-1.61-4.15-.36-.43-.73-.46-1.1,0-1,1.25-1.79,0-2.65-.24-1.17-.68-2.59-.57-3.76-1.26a6.12,6.12,0,0,0-2.52-.13,3.7,3.7,0,0,0-1.41.93Z" transform="translate(-50.69 -50.99)"/><path class="cls-37" d="M107.13,134.62a3.48,3.48,0,0,0,3.86.23,13.09,13.09,0,0,0,0-2.43c-.4-1.94-.81-2.1-3.57-1.68-1.44,1.8-3.38,1.06-5.18,1l1.11,2.66,1.27.06A1.67,1.67,0,0,1,107.13,134.62Z" transform="translate(-50.69 -50.99)"/><path class="cls-151" d="M98.36,131.49c.36.47.71.95,1.06,1.42C99.07,132.44,98.72,132,98.36,131.49Z" transform="translate(-50.69 -50.99)"/><path class="cls-37" d="M102.51,126.63l1.54-1.1Z" transform="translate(-50.69 -50.99)"/><path class="cls-244" d="M108.31,156.52a4.09,4.09,0,0,0-2.31-2.69,14,14,0,0,1-1.32-1.46l.08.08c-3.53.33-6.6-1.45-9.9-2.15-1,.15-2.13.19-2.82,1.19C97.24,153.87,102.37,156.49,108.31,156.52Z" transform="translate(-50.69 -50.99)"/><path class="cls-7" d="M217.21,100.57l-1.34-1.47a58,58,0,0,0-16.32,14.3,6.21,6.21,0,0,1-1.29,1.32h0c-.44.4-.86.81-1.27,1.23a5.91,5.91,0,0,0-.34,1.23c5.19,1,8.55-2,11.17-5.64a32.75,32.75,0,0,1,5.17-6.13v0c1.27-1.73,2.8-3.22,4.2-4.82Z" transform="translate(-50.69 -50.99)"/><path class="cls-213" d="M213,105.41c-2.54-.2-3.7,1.53-4.66,3.43-2,4-5.78,5.77-9.26,7.93a6.61,6.61,0,0,1-2.42.41l-2.38,1.27a11.24,11.24,0,0,1-.18,1.14,1.63,1.63,0,0,0,2,1c1.35-.54,2.62-1.29,3.93-1.93,1.12-.55,2.28-1.55,3.38-1.5,2.18.1,3.5-.89,4.78-2.38.93-1.1,2.05-2,3.08-3-.93-.26-2.33-.38-1.26-1.8S213,107.56,213,105.41Z" transform="translate(-50.69 -50.99)"/><path class="cls-213" d="M197,116l1.27-1.23Z" transform="translate(-50.69 -50.99)"/><path class="cls-213" d="M198.26,114.72l1.29-1.32Z" transform="translate(-50.69 -50.99)"/><path class="cls-245" d="M205.48,122.92c-1.17,1.61-3.62,1.07-4.77,2.89a2.83,2.83,0,0,1-2.22,1c-3.45-.23-6.53,1.59-9.91,1.62-.12,1.91,1,2.52,2.68,2.44,2-.09,3.91-1.21,6-.81l0,0c.45-.39.9-.78,1.35-1.15,2.52-1.1,5.05-2.18,7.56-3.31.8-.36,1.57-.94.91-1.9C206.81,123.27,206,123.17,205.48,122.92Z" transform="translate(-50.69 -50.99)"/><path class="cls-31" d="M200.33,122.56l3.79.2,2.85-3.69C204.32,119.41,201.91,120.2,200.33,122.56Z" transform="translate(-50.69 -50.99)"/><path class="cls-203" d="M198.64,128.9l-1.35,1.15Z" transform="translate(-50.69 -50.99)"/><path class="cls-205" d="M179.8,102l1.25-1.07A1.45,1.45,0,0,0,179.8,102Z" transform="translate(-50.69 -50.99)"/><path class="cls-246" d="M188.16,71.72c-1.23.64-2.39,2.1-2,3,1,2.08-2.1,4,.13,5.9L187.65,82a14.79,14.79,0,0,0,3-7.52c-.29-.27-.6-.8-.87-.78C188.17,73.82,188.1,72.85,188.16,71.72Z" transform="translate(-50.69 -50.99)"/><path class="cls-213" d="M212.5,111.75c-.39-.79-.8-.69-1.23,0Z" transform="translate(-50.69 -50.99)"/><path class="cls-212" d="M217.18,100.57c-2.2.9-3.93,2.23-4.2,4.82C215.07,104.38,216.81,103.07,217.18,100.57Z" transform="translate(-50.69 -50.99)"/><path class="cls-247" d="M123.65,158.7a3.21,3.21,0,0,1-1.64,2.5c-1,.44-2.05.81-2.33-.75s-1.35-1.17-2.34-1a34.61,34.61,0,0,0,6.23,12c1,1.32,1.88,2.71,2.82,4.06l1.44-1.25C126.29,169.14,125.9,163.67,123.65,158.7Z" transform="translate(-50.69 -50.99)"/><path class="cls-247" d="M122.77,156a8,8,0,0,0-.72,1c-.26.55-.75,1.31-.56,1.67.56,1.07,1.42.12,2.16.05A2.86,2.86,0,0,0,122.77,156Z" transform="translate(-50.69 -50.99)"/><path class="cls-247" d="M121.42,152.25c-.09,1.45-.45,3,1.36,3.77A4.79,4.79,0,0,0,121.42,152.25Z" transform="translate(-50.69 -50.99)"/><path class="cls-37" d="M113.64,135.09c.36,0,.73,0,1.1,0,.08-.4.17-.8.26-1.2A1.64,1.64,0,0,0,113.64,135.09Z" transform="translate(-50.69 -50.99)"/><path class="cls-248" d="M115.21,148.06c-.79-1.87-1.58-3.74-2.43-5.73-1.4,1-1.74,3.14-3.81,2.71l-.12,2.54c-.2,1.45-.16,2.84,1,3.93a23.06,23.06,0,0,0,3.6,6.35c3.14.43,1.89-1.75,1.81-3.13C115.16,152.51,113.38,150.31,115.21,148.06Z" transform="translate(-50.69 -50.99)"/><path class="cls-249" d="M107.84,143.65c-.49-2-1-4.09-1.51-6.12-.09-.32-.61-.51-.93-.76-.2.29-.64.71-.56.85,1.22,2.27-.44,5.18,1.65,7.23Z" transform="translate(-50.69 -50.99)"/><path class="cls-250" d="M109.87,151.51c.14-1.43.38-2.89-1-3.93l-3.92,1C107,152.06,107,152.06,109.87,151.51Z" transform="translate(-50.69 -50.99)"/><path class="cls-154" d="M95.36,137.74l-.06,1.42a.94.94,0,0,0,1.23,0Z" transform="translate(-50.69 -50.99)"/><path class="cls-251" d="M97.67,143l.57-.51c-.12,0-.27,0-.33.08a1.82,1.82,0,0,0-.24.43Z" transform="translate(-50.69 -50.99)"/><path class="cls-252" d="M96.53,139.13a5.07,5.07,0,0,0-1.23,0l0,.63C96,140.08,96.33,139.76,96.53,139.13Z" transform="translate(-50.69 -50.99)"/><path class="cls-253" d="M115.21,148.06c-.86,0-1.82.15-1.71,1.17.21,2,.7,4,1,6a2.21,2.21,0,0,1-1.08,2.61c.61,1.87,2.24,1.59,3.66,1.75C117.37,155.62,115.08,152,115.21,148.06Z" transform="translate(-50.69 -50.99)"/><path class="cls-162" d="M104.68,152.37l1.31,1.45Z" transform="translate(-50.69 -50.99)"/><path class="cls-196" d="M107.13,134.62c-.77-1.35-1.62-1.4-2.56-.17Z" transform="translate(-50.69 -50.99)"/></g></g></svg>