<svg xmlns="http://www.w3.org/2000/svg" viewBox="0 0 538.81 104.93"><defs><style>.cls-1{fill:#9b9b9b;}.cls-2{fill:#ef394d;}</style></defs><g id="Objects"><path id="putih" class="cls-1" d="M713.52,827.59q2.25,2.19,4.47,4.39l.44-.33c23.93-18.13,56.75-34.77,62.15-68.39,1.86-11.6-.53-25.57-10.34-31.15-9.6-5.46-21.61-.28-30.15,6.88a78.07,78.07,0,0,0-18.19,22.28c-4-7.28-8-14.64-13.46-20.78S696,729.42,688.06,728.28c-5.33-.77-11.08.34-15.22,4a21.62,21.62,0,0,0-5.68,8.87c-3,8.33-2.54,17.76.05,26.26s7.15,16.16,12.13,23.37C688.91,804.59,701.53,816,713.52,827.59Z" transform="translate(-415.17 -727.05)"/><path id="merah" class="cls-2" d="M657.59,826.59q-2.26,2.19-4.48,4.39l-.44-.33c-23.92-18.13-56.75-34.77-62.14-68.39-1.86-11.6.53-25.58,10.33-31.15,9.6-5.46,21.62-.28,30.15,6.88a77.93,77.93,0,0,1,18.2,22.28c4-7.28,8-14.64,13.45-20.78s12.49-11.07,20.38-12.21c5.33-.77,11.09.34,15.22,4a21.62,21.62,0,0,1,5.68,8.87c3,8.33,2.54,17.76-.05,26.26s-7.14,16.16-12.13,23.37C682.2,803.59,669.57,815,657.59,826.59Z" transform="translate(-415.17 -727.05)"/><rect class="cls-1" y="56.63" width="146.61" height="5.24"/><rect class="cls-1" x="392.2" y="59.25" width="146.61" height="5.24"/></g></svg>